<svg id="visual" viewBox="0 0 900 600" width="900" height="600" xmlns="http://www.w3.org/2000/svg" xmlns:xlink="http://www.w3.org/1999/xlink" version="1.1"><g transform="translate(441.39941874117187 298.8716513607504)"><path d="M132.4 -200.4C171.8 -180.7 204.2 -144.4 227.9 -101.4C251.7 -58.5 266.9 -9 255.8 33.6C244.7 76.2 207.4 111.8 173.1 148.2C138.7 184.6 107.4 221.8 68.3 233.9C29.2 246 -17.7 232.8 -59.1 214.5C-100.4 196.3 -136.4 172.8 -164.1 141.7C-191.8 110.6 -211.2 71.9 -225.4 27.4C-239.6 -17.1 -248.5 -67.3 -237.1 -114.9C-225.7 -162.5 -193.9 -207.4 -151 -225.5C-108.1 -243.6 -54.1 -234.8 -3.8 -228.9C46.5 -223 93 -220 132.4 -200.4" fill="#ffd104"></path></g></svg>