<svg id="Layer_1" data-name="Layer 1" xmlns="http://www.w3.org/2000/svg" viewBox="0 0 289.94 43.47"><title>logo</title><path d="M14.83,47a9.59,9.59,0,0,1-3.91-.79A8.3,8.3,0,0,1,7.85,44,9.27,9.27,0,0,1,6,40.51l.32-.37-.19,6.4H4.07V13H6.36V29.7l-.27-.41a8.66,8.66,0,0,1,3.27-4.53,9.19,9.19,0,0,1,5.47-1.68,10.08,10.08,0,0,1,5.36,1.42,10,10,0,0,1,3.7,4.1A13.86,13.86,0,0,1,25.27,35a13.87,13.87,0,0,1-1.38,6.41,9.84,9.84,0,0,1-3.73,4.12A10.1,10.1,0,0,1,14.83,47Zm-.27-2a7.64,7.64,0,0,0,6.15-2.67A10.85,10.85,0,0,0,23,35a11,11,0,0,0-2.24-7.27A7.6,7.6,0,0,0,14.6,25.1a7.66,7.66,0,0,0-4.25,1.22,8,8,0,0,0-2.93,3.47,12.3,12.3,0,0,0-1.06,5.29,12.12,12.12,0,0,0,1.06,5.27,8.06,8.06,0,0,0,2.9,3.43A7.63,7.63,0,0,0,14.56,45Z" transform="translate(-4.07 -12.96)"/><path d="M31.86,46.54v-23h1.92l.28,4.83a8,8,0,0,1,2.79-3.87,7.53,7.53,0,0,1,4.62-1.42,7,7,0,0,1,1.65.18,2.68,2.68,0,0,1,1.19.6l-.5,2a4.76,4.76,0,0,0-1.1-.5,6.17,6.17,0,0,0-1.79-.19,5.65,5.65,0,0,0-3.29,1.08,7.84,7.84,0,0,0-2.52,3,9.69,9.69,0,0,0-1,4.4V46.54Z" transform="translate(-4.07 -12.96)"/><path d="M62.57,31.4A6.38,6.38,0,0,0,61,26.76,6,6,0,0,0,56.4,25.1a8.58,8.58,0,0,0-4.49,1.13A6.74,6.74,0,0,0,49.12,30l-1.88-1.2a8.23,8.23,0,0,1,3.36-4.21,10.78,10.78,0,0,1,5.84-1.49,10.38,10.38,0,0,1,4.42.89,6.72,6.72,0,0,1,3,2.65,8.34,8.34,0,0,1,1,4.37v11.5c0,1.63.74,2.44,2.2,2.44a4,4,0,0,0,1.65-.32l-.14,1.84a4.35,4.35,0,0,1-2,.41,4.79,4.79,0,0,1-2-.41,3.35,3.35,0,0,1-1.49-1.38,5.18,5.18,0,0,1-.57-2.63V41.2l.64,0a6.07,6.07,0,0,1-1.81,3.28,8.81,8.81,0,0,1-3.23,1.94,11.44,11.44,0,0,1-3.66.62,10.11,10.11,0,0,1-3.84-.69,6,6,0,0,1-2.66-2,5.93,5.93,0,0,1,.76-7.41,9.6,9.6,0,0,1,4.83-2.19L63,32.83v1.93L54.7,36.42a9.59,9.59,0,0,0-4,1.61,3.5,3.5,0,0,0-1.32,2.89,3.54,3.54,0,0,0,1.41,3,6.55,6.55,0,0,0,4,1.08,10.56,10.56,0,0,0,2.7-.36A8.08,8.08,0,0,0,60,43.43a6,6,0,0,0,1.86-2,5.93,5.93,0,0,0,.68-3Z" transform="translate(-4.07 -12.96)"/><path d="M73.42,46.54v-23h2.06l.19,5.75L75.3,29a8.41,8.41,0,0,1,1.92-3.19,8.51,8.51,0,0,1,3.07-2,10.56,10.56,0,0,1,3.84-.69,10.27,10.27,0,0,1,4.54,1,7.33,7.33,0,0,1,3.09,2.85,9.24,9.24,0,0,1,1.12,4.74V46.54H90.59V32.37q0-3.78-1.85-5.52a6.75,6.75,0,0,0-4.83-1.75,8.39,8.39,0,0,0-4,1,8,8,0,0,0-3,2.87,8.59,8.59,0,0,0-1.17,4.6v13Z" transform="translate(-4.07 -12.96)"/><path d="M109.72,47a10.2,10.2,0,0,1-5.35-1.43,9.71,9.71,0,0,1-3.73-4.12A14.13,14.13,0,0,1,99.29,35a13.62,13.62,0,0,1,1.42-6.49,9.94,9.94,0,0,1,3.84-4.07,10.46,10.46,0,0,1,5.36-1.4,8.82,8.82,0,0,1,5.47,1.7,8.25,8.25,0,0,1,3,4.74l-.27.18V13h2.28V46.54h-2.06l-.13-6.4.27-.09a8.27,8.27,0,0,1-1.67,3.77,8,8,0,0,1-3.11,2.37A9.91,9.91,0,0,1,109.72,47Zm.28-2a7.44,7.44,0,0,0,4.25-1.22,8.06,8.06,0,0,0,2.87-3.51,13.22,13.22,0,0,0,1-5.39,12.27,12.27,0,0,0-1-5.22,8.06,8.06,0,0,0-2.84-3.36,7.55,7.55,0,0,0-4.19-1.17,7.78,7.78,0,0,0-6.23,2.67A10.83,10.83,0,0,0,101.57,35a10.85,10.85,0,0,0,2.27,7.26A7.65,7.65,0,0,0,110,45Z" transform="translate(-4.07 -12.96)"/><path d="M137.92,23.08a11,11,0,0,1,5.65,1.42,9.91,9.91,0,0,1,3.85,4.12A13.76,13.76,0,0,1,148.81,35a13.75,13.75,0,0,1-1.39,6.41,9.85,9.85,0,0,1-3.85,4.12,11.88,11.88,0,0,1-11.3,0,9.85,9.85,0,0,1-3.85-4.12A13.75,13.75,0,0,1,127,35a13.76,13.76,0,0,1,1.39-6.42,9.91,9.91,0,0,1,3.85-4.12A11,11,0,0,1,137.92,23.08Zm0,2a8.37,8.37,0,0,0-4.53,1.2,8.06,8.06,0,0,0-3,3.43A12.2,12.2,0,0,0,129.31,35a12.22,12.22,0,0,0,1.08,5.33,8,8,0,0,0,3,3.45,9.15,9.15,0,0,0,9.06,0,8,8,0,0,0,3-3.45A12.22,12.22,0,0,0,146.53,35a12.2,12.2,0,0,0-1.08-5.36,8.06,8.06,0,0,0-3-3.43A8.37,8.37,0,0,0,137.92,25.05Z" transform="translate(-4.07 -12.96)"/><path d="M155.36,46.54v-23h2.06l.18,5.75-.36-.33a8.17,8.17,0,0,1,1.92-3.19,8.43,8.43,0,0,1,3.07-2,10.56,10.56,0,0,1,3.84-.69,10.2,10.2,0,0,1,4.53,1,7.33,7.33,0,0,1,3.09,2.85,9.14,9.14,0,0,1,1.12,4.74V46.54h-2.29V32.37c0-2.52-.61-4.36-1.85-5.52a6.73,6.73,0,0,0-4.83-1.75,8.35,8.35,0,0,0-4,1,7.84,7.84,0,0,0-3,2.87,8.59,8.59,0,0,0-1.17,4.6v13Z" transform="translate(-4.07 -12.96)"/><path d="M199.35,13V46.54h-2.29V13Zm16.57,10.58-10.07,9.75-.55.55-7.1,6.9V37.8l14.74-14.26ZM206,32.09l10.3,14.45h-2.8l-9.38-13.11Z" transform="translate(-4.07 -12.96)"/><path d="M229.7,23.08a11,11,0,0,1,5.65,1.42,10,10,0,0,1,3.85,4.12A13.76,13.76,0,0,1,240.59,35a13.75,13.75,0,0,1-1.39,6.41,10,10,0,0,1-3.85,4.12,11.9,11.9,0,0,1-11.31,0,9.89,9.89,0,0,1-3.84-4.12A13.75,13.75,0,0,1,218.8,35a13.76,13.76,0,0,1,1.4-6.42A10,10,0,0,1,224,24.5,11.07,11.07,0,0,1,229.7,23.08Zm0,2a8.37,8.37,0,0,0-4.53,1.2,7.93,7.93,0,0,0-3,3.43A12.2,12.2,0,0,0,221.09,35a12.22,12.22,0,0,0,1.08,5.33,7.82,7.82,0,0,0,3,3.45,9.15,9.15,0,0,0,9.06,0,8,8,0,0,0,3-3.45A12.36,12.36,0,0,0,238.3,35a12.35,12.35,0,0,0-1.07-5.36,8.06,8.06,0,0,0-3-3.43A8.37,8.37,0,0,0,229.7,25.05Z" transform="translate(-4.07 -12.96)"/><path d="M247.14,46.54v-23h2.06l.18,5.75L249,29a8.31,8.31,0,0,1,5-5.19,10.61,10.61,0,0,1,3.85-.69,10.2,10.2,0,0,1,4.53,1,7.33,7.33,0,0,1,3.09,2.85,9.14,9.14,0,0,1,1.12,4.74V46.54H264.3V32.37c0-2.52-.61-4.36-1.85-5.52a6.75,6.75,0,0,0-4.83-1.75,8.41,8.41,0,0,0-4,1,8,8,0,0,0-3,2.87,8.68,8.68,0,0,0-1.16,4.6v13Z" transform="translate(-4.07 -12.96)"/><path d="M286.23,44.19a8.75,8.75,0,0,1,5.31,1.43,4.51,4.51,0,0,1,1.92,3.82,5.36,5.36,0,0,1-1.39,3.68,9.23,9.23,0,0,1-3.83,2.43,16.06,16.06,0,0,1-5.54.88c-3.45,0-6.08-.59-7.91-1.77A5.17,5.17,0,0,1,272,50.22a4.64,4.64,0,0,1,1.39-3.36,6.46,6.46,0,0,1,4.1-1.7l-.18.41a6.82,6.82,0,0,1-2.59-1.38,3.43,3.43,0,0,1-1.12-2.76,3.93,3.93,0,0,1,1.44-3.15,6.55,6.55,0,0,1,3.83-1.4l2.42.83h-1a6.44,6.44,0,0,0-3.37,1,2.75,2.75,0,0,0-1.25,2.32A2.6,2.6,0,0,0,277,43.41a5.62,5.62,0,0,0,3.09.78Zm-3.85-21.11a11.5,11.5,0,0,1,4.79.94,7.52,7.52,0,0,1,3.22,2.62,6.76,6.76,0,0,1,1.15,3.93,6.91,6.91,0,0,1-1.15,3.94,7.41,7.41,0,0,1-3.22,2.67,11.66,11.66,0,0,1-4.79.94A10.14,10.14,0,0,1,275.59,36a6.83,6.83,0,0,1-2.45-5.46,6.77,6.77,0,0,1,1.16-3.93A7.8,7.8,0,0,1,277.55,24,11.6,11.6,0,0,1,282.38,23.08Zm.32,31.42a14.64,14.64,0,0,0,4.63-.65,7.16,7.16,0,0,0,2.95-1.72,3.42,3.42,0,0,0,1-2.42,3,3,0,0,0-1.4-2.58,7.52,7.52,0,0,0-4.23-1h-6.5a6,6,0,0,0-3.57,1,3.17,3.17,0,0,0-1.42,2.72,3.76,3.76,0,0,0,2.27,3.33A12.91,12.91,0,0,0,282.7,54.5ZM282.38,25a7.69,7.69,0,0,0-4.94,1.54,5,5,0,0,0-1.92,4.07,5,5,0,0,0,1.92,4.1,7.59,7.59,0,0,0,4.94,1.56,7.48,7.48,0,0,0,4.92-1.56,5,5,0,0,0,1.9-4.1,5,5,0,0,0-1.9-4.07A7.58,7.58,0,0,0,282.38,25Zm11.08-5.66.55,2h-.23a4.76,4.76,0,0,0-3.45,1.17,4.36,4.36,0,0,0-1.22,3.29l-1.46-.74a6,6,0,0,1,.73-3,5.15,5.15,0,0,1,2-2,5.82,5.82,0,0,1,2.89-.72h.18Z" transform="translate(-4.07 -12.96)"/><text x="-4.07" y="-12.96"/></svg>