<svg width="323" height="100" viewBox="0 0 323 100" fill="none" xmlns="http://www.w3.org/2000/svg">
<g clip-path="url(#clip0_181_3118)">
<rect width="323" height="100" rx="20" fill="#1A1A1A"/>
<circle cx="15" cy="15" r="5" fill="#FED538"/>
<circle cx="308" cy="85" r="5" fill="#FED538"/>
<path d="M57.808 47H56.704V33.488H57.808V39.536H66.112V33.488H67.168V47H66.112V40.448H57.808V47ZM74.155 47.24C73.115 47.24 72.251 46.992 71.563 46.496C70.891 46 70.387 45.368 70.051 44.6C69.715 43.816 69.555 43.008 69.571 42.176C69.571 41.312 69.747 40.504 70.099 39.752C70.451 39 70.963 38.4 71.635 37.952C72.323 37.488 73.155 37.256 74.131 37.256C75.347 37.256 76.347 37.656 77.131 38.456C77.931 39.24 78.379 40.296 78.475 41.624C78.491 41.704 78.499 41.8 78.499 41.912C78.499 42.024 78.499 42.128 78.499 42.224H70.627C70.627 43.456 70.931 44.44 71.539 45.176C72.147 45.912 73.019 46.28 74.155 46.28C74.971 46.28 75.675 46.064 76.267 45.632C76.875 45.2 77.251 44.616 77.395 43.88H78.475C78.283 44.872 77.795 45.68 77.011 46.304C76.243 46.928 75.291 47.24 74.155 47.24ZM70.699 41.504H77.371C77.355 41.088 77.235 40.624 77.011 40.112C76.803 39.6 76.459 39.152 75.979 38.768C75.515 38.384 74.899 38.192 74.131 38.192C73.075 38.192 72.267 38.52 71.707 39.176C71.147 39.832 70.811 40.608 70.699 41.504ZM80.8345 47V33.488H81.9385V47H80.8345ZM84.4908 47V33.488H85.5948V47H84.4908ZM92.107 47.24C90.587 47.24 89.443 46.776 88.675 45.848C87.923 44.904 87.547 43.712 87.547 42.272C87.547 40.8 87.931 39.6 88.699 38.672C89.467 37.728 90.603 37.256 92.107 37.256C93.579 37.256 94.699 37.72 95.467 38.648C96.251 39.56 96.643 40.768 96.643 42.272C96.643 43.216 96.475 44.064 96.139 44.816C95.819 45.552 95.323 46.144 94.651 46.592C93.995 47.024 93.147 47.24 92.107 47.24ZM92.107 46.256C93.003 46.256 93.699 46.056 94.195 45.656C94.691 45.256 95.035 44.752 95.227 44.144C95.435 43.52 95.539 42.888 95.539 42.248C95.539 41.592 95.435 40.96 95.227 40.352C95.035 39.728 94.691 39.216 94.195 38.816C93.699 38.4 93.003 38.192 92.107 38.192C91.211 38.192 90.515 38.4 90.019 38.816C89.523 39.216 89.171 39.728 88.963 40.352C88.755 40.96 88.651 41.592 88.651 42.248C88.651 42.888 88.755 43.52 88.963 44.144C89.171 44.752 89.523 45.256 90.019 45.656C90.515 46.056 91.211 46.256 92.107 46.256ZM99.5277 44.024C99.4637 41.864 99.3917 40.096 99.3117 38.72C99.2317 37.344 99.1757 36.28 99.1437 35.528C99.1277 34.76 99.1677 34.232 99.2637 33.944C99.3757 33.64 99.5917 33.488 99.9117 33.488C100.2 33.488 100.392 33.64 100.488 33.944C100.6 34.232 100.64 34.76 100.608 35.528C100.592 36.28 100.544 37.344 100.464 38.72C100.4 40.096 100.344 41.864 100.296 44.024C100.296 44.024 100.256 44.016 100.176 44C100.096 43.984 100.008 43.976 99.9117 43.976C99.8157 43.976 99.7277 43.984 99.6477 44C99.5677 44.016 99.5277 44.024 99.5277 44.024ZM99.9357 47.216C99.6477 47.216 99.4557 47.136 99.3597 46.976C99.2637 46.816 99.2157 46.616 99.2157 46.376C99.2157 46.168 99.2637 45.992 99.3597 45.848C99.4557 45.688 99.6477 45.608 99.9357 45.608C100.208 45.608 100.392 45.688 100.488 45.848C100.584 45.992 100.632 46.168 100.632 46.376C100.632 46.616 100.584 46.816 100.488 46.976C100.392 47.136 100.208 47.216 99.9357 47.216ZM113.903 46.04V47H109.055V46.04H110.951V34.472H109.055V33.488H113.903V34.472H112.031V46.04H113.903ZM115.949 37.304V36.272C116.509 36.272 116.909 36.16 117.149 35.936C117.405 35.712 117.573 35.472 117.653 35.216C117.589 35.232 117.525 35.24 117.461 35.24C117.141 35.24 116.925 35.16 116.813 35C116.701 34.824 116.645 34.616 116.645 34.376C116.645 34.136 116.701 33.928 116.813 33.752C116.925 33.576 117.141 33.488 117.461 33.488C117.765 33.488 117.973 33.576 118.085 33.752C118.197 33.928 118.253 34.136 118.253 34.376H118.277H118.253H118.277H118.253C118.253 34.424 118.237 34.6 118.205 34.904C118.173 35.208 118.085 35.544 117.941 35.912C117.813 36.28 117.589 36.608 117.269 36.896C116.949 37.168 116.509 37.304 115.949 37.304ZM120.038 47V37.256H120.95L121.046 39.848H121.094C121.142 39.704 121.222 39.496 121.334 39.224C121.462 38.936 121.646 38.648 121.886 38.36C122.126 38.056 122.446 37.8 122.846 37.592C123.246 37.368 123.742 37.256 124.334 37.256C124.974 37.256 125.486 37.384 125.87 37.64C126.27 37.88 126.582 38.2 126.806 38.6C127.03 39 127.19 39.416 127.286 39.848H127.334C127.382 39.704 127.47 39.496 127.598 39.224C127.742 38.936 127.942 38.648 128.198 38.36C128.47 38.056 128.814 37.8 129.23 37.592C129.646 37.368 130.15 37.256 130.742 37.256C131.382 37.256 131.902 37.384 132.302 37.64C132.702 37.896 133.014 38.224 133.238 38.624C133.462 39.008 133.622 39.424 133.718 39.872C133.814 40.32 133.87 40.752 133.886 41.168C133.902 41.568 133.91 41.904 133.91 42.176V47H132.926V42.152C132.926 41.88 132.91 41.536 132.878 41.12C132.862 40.688 132.774 40.256 132.614 39.824C132.47 39.376 132.23 39.008 131.894 38.72C131.558 38.416 131.078 38.264 130.454 38.264C129.766 38.264 129.206 38.456 128.774 38.84C128.342 39.224 128.014 39.728 127.79 40.352C127.582 40.976 127.478 41.656 127.478 42.392V47H126.494V42.152C126.494 41.88 126.478 41.536 126.446 41.12C126.43 40.688 126.342 40.256 126.182 39.824C126.038 39.376 125.798 39.008 125.462 38.72C125.126 38.416 124.646 38.264 124.022 38.264C123.334 38.264 122.774 38.456 122.342 38.84C121.91 39.224 121.582 39.728 121.358 40.352C121.15 40.976 121.046 41.656 121.046 42.392V47H120.038Z" fill="white"/>
<path d="M142.315 47V33.488H147.187C147.779 33.488 148.371 33.528 148.963 33.608C149.571 33.688 150.123 33.848 150.619 34.088C151.131 34.328 151.539 34.688 151.843 35.168C152.163 35.648 152.323 36.28 152.323 37.064C152.323 37.592 152.219 38.08 152.011 38.528C151.819 38.96 151.459 39.312 150.931 39.584C150.419 39.856 149.675 40 148.699 40.016V40.112C149.835 40.112 150.707 40.272 151.315 40.592C151.923 40.896 152.339 41.296 152.563 41.792C152.803 42.288 152.923 42.84 152.923 43.448C152.923 44.248 152.747 44.888 152.395 45.368C152.059 45.848 151.619 46.208 151.075 46.448C150.531 46.672 149.939 46.824 149.299 46.904C148.659 46.968 148.043 47 147.451 47H142.315ZM143.851 39.416H147.019C147.771 39.416 148.427 39.368 148.987 39.272C149.547 39.176 149.979 38.976 150.283 38.672C150.603 38.352 150.763 37.864 150.763 37.208C150.763 36.456 150.587 35.912 150.235 35.576C149.899 35.24 149.443 35.032 148.867 34.952C148.307 34.856 147.699 34.808 147.043 34.808H143.851V39.416ZM143.851 45.704H147.331C148.067 45.704 148.731 45.656 149.323 45.56C149.931 45.448 150.411 45.224 150.763 44.888C151.131 44.536 151.315 44 151.315 43.28C151.315 42.528 151.123 41.968 150.739 41.6C150.355 41.216 149.843 40.968 149.203 40.856C148.563 40.728 147.851 40.664 147.067 40.664H143.851V45.704ZM154.918 47V37.232H156.31L156.478 39.8C156.574 39.368 156.766 38.952 157.054 38.552C157.342 38.152 157.734 37.832 158.23 37.592C158.742 37.336 159.374 37.216 160.126 37.232H160.582V38.936H160.102C159.078 38.936 158.302 39.088 157.774 39.392C157.262 39.68 156.91 40.088 156.718 40.616C156.542 41.144 156.454 41.752 156.454 42.44V47H154.918ZM165.352 47.216C164.456 47.216 163.72 47 163.144 46.568C162.568 46.12 162.136 45.52 161.848 44.768C161.576 44.016 161.44 43.16 161.44 42.2C161.44 40.728 161.76 39.52 162.4 38.576C163.056 37.616 164.04 37.136 165.352 37.136C166.024 37.136 166.584 37.256 167.032 37.496C167.496 37.72 167.864 38 168.136 38.336C168.424 38.672 168.632 38.992 168.76 39.296H168.784V37.232H170.368V47H169.048L168.808 45.104H168.76C168.616 45.424 168.408 45.752 168.136 46.088C167.864 46.408 167.496 46.68 167.032 46.904C166.584 47.112 166.024 47.216 165.352 47.216ZM165.952 45.848C166.944 45.848 167.656 45.52 168.088 44.864C168.536 44.208 168.76 43.328 168.76 42.224C168.76 41.04 168.528 40.136 168.064 39.512C167.616 38.888 166.912 38.576 165.952 38.576C164.896 38.576 164.136 38.928 163.672 39.632C163.224 40.32 163 41.176 163 42.2C163 43.272 163.232 44.152 163.696 44.84C164.16 45.512 164.912 45.848 165.952 45.848ZM172.162 47V37.232H173.482L173.746 39.656H173.794C173.81 39.576 173.882 39.408 174.01 39.152C174.138 38.896 174.33 38.624 174.586 38.336C174.858 38.032 175.21 37.776 175.642 37.568C176.074 37.344 176.626 37.232 177.298 37.232C178.146 37.232 178.81 37.384 179.29 37.688C179.786 37.992 180.154 38.4 180.394 38.912C180.634 39.408 180.786 39.944 180.85 40.52C180.914 41.096 180.946 41.648 180.946 42.176V47H179.458V42.176C179.458 41.12 179.274 40.264 178.906 39.608C178.554 38.952 177.85 38.624 176.794 38.624C176.074 38.624 175.482 38.8 175.018 39.152C174.57 39.488 174.242 39.944 174.034 40.52C173.842 41.08 173.746 41.696 173.746 42.368V47H172.162ZM187.313 47.24C186.369 47.24 185.577 47.024 184.937 46.592C184.313 46.16 183.841 45.568 183.521 44.816C183.217 44.048 183.065 43.192 183.065 42.248C183.065 40.792 183.425 39.592 184.145 38.648C184.865 37.704 185.929 37.232 187.337 37.232C187.993 37.232 188.537 37.344 188.969 37.568C189.417 37.776 189.777 38.032 190.049 38.336C190.321 38.64 190.521 38.92 190.649 39.176C190.777 39.432 190.857 39.6 190.889 39.68H190.937L190.961 33.488H192.545V47H191.201L190.961 44.84H190.913C190.881 44.92 190.793 45.088 190.649 45.344C190.505 45.6 190.289 45.872 190.001 46.16C189.729 46.448 189.369 46.704 188.921 46.928C188.489 47.136 187.953 47.24 187.313 47.24ZM187.697 45.872C188.641 45.872 189.409 45.552 190.001 44.912C190.609 44.256 190.913 43.368 190.913 42.248C190.913 41.144 190.633 40.272 190.073 39.632C189.513 38.976 188.761 38.648 187.817 38.648C187.065 38.648 186.449 38.824 185.969 39.176C185.489 39.512 185.137 39.952 184.913 40.496C184.689 41.04 184.577 41.624 184.577 42.248C184.577 42.856 184.681 43.44 184.889 44C185.097 44.544 185.425 44.992 185.873 45.344C186.321 45.696 186.929 45.872 187.697 45.872ZM198.984 47.24C197.416 47.24 196.24 46.776 195.456 45.848C194.688 44.904 194.304 43.704 194.304 42.248C194.288 40.776 194.672 39.576 195.456 38.648C196.256 37.704 197.432 37.224 198.984 37.208C200.52 37.208 201.68 37.672 202.464 38.6C203.264 39.512 203.664 40.728 203.664 42.248C203.664 43.192 203.496 44.04 203.16 44.792C202.824 45.544 202.312 46.144 201.624 46.592C200.936 47.024 200.056 47.24 198.984 47.24ZM198.984 45.896C199.816 45.896 200.456 45.712 200.904 45.344C201.368 44.976 201.688 44.512 201.864 43.952C202.056 43.376 202.152 42.792 202.152 42.2C202.152 41.608 202.056 41.024 201.864 40.448C201.688 39.872 201.368 39.4 200.904 39.032C200.456 38.664 199.816 38.48 198.984 38.48C198.152 38.48 197.504 38.664 197.04 39.032C196.592 39.4 196.272 39.872 196.08 40.448C195.904 41.024 195.816 41.608 195.816 42.2C195.816 42.792 195.904 43.376 196.08 43.952C196.272 44.512 196.592 44.976 197.04 45.344C197.504 45.712 198.152 45.896 198.984 45.896ZM205.537 47V37.232H206.857L207.121 39.656H207.169C207.185 39.576 207.257 39.408 207.385 39.152C207.513 38.896 207.705 38.624 207.961 38.336C208.233 38.032 208.585 37.776 209.017 37.568C209.449 37.344 210.001 37.232 210.673 37.232C211.521 37.232 212.185 37.384 212.665 37.688C213.161 37.992 213.529 38.4 213.769 38.912C214.009 39.408 214.161 39.944 214.225 40.52C214.289 41.096 214.321 41.648 214.321 42.176V47H212.833V42.176C212.833 41.12 212.649 40.264 212.281 39.608C211.929 38.952 211.225 38.624 210.169 38.624C209.449 38.624 208.857 38.8 208.393 39.152C207.945 39.488 207.617 39.944 207.409 40.52C207.217 41.08 207.121 41.696 207.121 42.368V47H205.537Z" fill="#FED538"/>
<path d="M64.384 58.488H65.536L69.592 71.448L73.672 58.488H74.872L70.504 72H68.704L64.96 60L61.048 72H59.224L55.072 58.488H56.248L60.16 71.448L64.384 58.488ZM80.0847 72.24C79.0447 72.24 78.1807 71.992 77.4927 71.496C76.8207 71 76.3167 70.368 75.9807 69.6C75.6447 68.816 75.4847 68.008 75.5007 67.176C75.5007 66.312 75.6767 65.504 76.0287 64.752C76.3807 64 76.8927 63.4 77.5647 62.952C78.2527 62.488 79.0847 62.256 80.0607 62.256C81.2767 62.256 82.2767 62.656 83.0607 63.456C83.8607 64.24 84.3087 65.296 84.4047 66.624C84.4207 66.704 84.4287 66.8 84.4287 66.912C84.4287 67.024 84.4287 67.128 84.4287 67.224H76.5567C76.5567 68.456 76.8607 69.44 77.4687 70.176C78.0767 70.912 78.9487 71.28 80.0847 71.28C80.9007 71.28 81.6047 71.064 82.1967 70.632C82.8047 70.2 83.1807 69.616 83.3247 68.88H84.4047C84.2127 69.872 83.7247 70.68 82.9407 71.304C82.1727 71.928 81.2207 72.24 80.0847 72.24ZM76.6287 66.504H83.3007C83.2847 66.088 83.1647 65.624 82.9407 65.112C82.7327 64.6 82.3887 64.152 81.9087 63.768C81.4447 63.384 80.8287 63.192 80.0607 63.192C79.0047 63.192 78.1967 63.52 77.6367 64.176C77.0767 64.832 76.7407 65.608 76.6287 66.504ZM86.7642 72V58.488H87.8682V72H86.7642ZM94.4284 72.24C93.0524 72.24 91.9324 71.808 91.0684 70.944C90.2044 70.08 89.7724 68.888 89.7724 67.368C89.7884 66.36 89.9964 65.472 90.3964 64.704C90.7964 63.936 91.3484 63.336 92.0524 62.904C92.7564 62.472 93.5724 62.256 94.5004 62.256C95.6844 62.256 96.6604 62.584 97.4284 63.24C98.2124 63.88 98.6924 64.688 98.8684 65.664H97.8364C97.6764 64.912 97.2924 64.328 96.6844 63.912C96.0924 63.48 95.3724 63.264 94.5244 63.264C93.4204 63.264 92.5324 63.64 91.8604 64.392C91.1884 65.144 90.8524 66.12 90.8524 67.32C90.8524 68.52 91.1724 69.472 91.8124 70.176C92.4684 70.88 93.3484 71.232 94.4524 71.232C95.3164 71.232 96.0524 71.016 96.6604 70.584C97.2844 70.152 97.6764 69.56 97.8364 68.808H98.8684C98.6924 69.8 98.2044 70.624 97.4044 71.28C96.6044 71.92 95.6124 72.24 94.4284 72.24ZM105.045 72.24C103.525 72.24 102.381 71.776 101.613 70.848C100.861 69.904 100.485 68.712 100.485 67.272C100.485 65.8 100.869 64.6 101.637 63.672C102.405 62.728 103.541 62.256 105.045 62.256C106.517 62.256 107.637 62.72 108.405 63.648C109.189 64.56 109.581 65.768 109.581 67.272C109.581 68.216 109.413 69.064 109.077 69.816C108.757 70.552 108.261 71.144 107.589 71.592C106.933 72.024 106.085 72.24 105.045 72.24ZM105.045 71.256C105.941 71.256 106.637 71.056 107.133 70.656C107.629 70.256 107.973 69.752 108.165 69.144C108.373 68.52 108.477 67.888 108.477 67.248C108.477 66.592 108.373 65.96 108.165 65.352C107.973 64.728 107.629 64.216 107.133 63.816C106.637 63.4 105.941 63.192 105.045 63.192C104.149 63.192 103.453 63.4 102.957 63.816C102.461 64.216 102.109 64.728 101.901 65.352C101.693 65.96 101.589 66.592 101.589 67.248C101.589 67.888 101.693 68.52 101.901 69.144C102.109 69.752 102.461 70.256 102.957 70.656C103.453 71.056 104.149 71.256 105.045 71.256ZM111.553 72V62.256H112.465L112.561 64.848H112.609C112.657 64.704 112.737 64.496 112.849 64.224C112.977 63.936 113.161 63.648 113.401 63.36C113.641 63.056 113.961 62.8 114.361 62.592C114.761 62.368 115.257 62.256 115.849 62.256C116.489 62.256 117.001 62.384 117.385 62.64C117.785 62.88 118.097 63.2 118.321 63.6C118.545 64 118.705 64.416 118.801 64.848H118.849C118.897 64.704 118.985 64.496 119.113 64.224C119.257 63.936 119.457 63.648 119.713 63.36C119.985 63.056 120.329 62.8 120.745 62.592C121.161 62.368 121.665 62.256 122.257 62.256C122.897 62.256 123.417 62.384 123.817 62.64C124.217 62.896 124.529 63.224 124.753 63.624C124.977 64.008 125.137 64.424 125.233 64.872C125.329 65.32 125.385 65.752 125.401 66.168C125.417 66.568 125.425 66.904 125.425 67.176V72H124.441V67.152C124.441 66.88 124.425 66.536 124.393 66.12C124.377 65.688 124.289 65.256 124.129 64.824C123.985 64.376 123.745 64.008 123.409 63.72C123.073 63.416 122.593 63.264 121.969 63.264C121.281 63.264 120.721 63.456 120.289 63.84C119.857 64.224 119.529 64.728 119.305 65.352C119.097 65.976 118.993 66.656 118.993 67.392V72H118.009V67.152C118.009 66.88 117.993 66.536 117.961 66.12C117.945 65.688 117.857 65.256 117.697 64.824C117.553 64.376 117.313 64.008 116.977 63.72C116.641 63.416 116.161 63.264 115.537 63.264C114.849 63.264 114.289 63.456 113.857 63.84C113.425 64.224 113.097 64.728 112.873 65.352C112.665 65.976 112.561 66.656 112.561 67.392V72H111.553ZM131.764 72.24C130.724 72.24 129.86 71.992 129.172 71.496C128.5 71 127.996 70.368 127.66 69.6C127.324 68.816 127.164 68.008 127.18 67.176C127.18 66.312 127.356 65.504 127.708 64.752C128.06 64 128.572 63.4 129.244 62.952C129.932 62.488 130.764 62.256 131.74 62.256C132.956 62.256 133.956 62.656 134.74 63.456C135.54 64.24 135.988 65.296 136.084 66.624C136.1 66.704 136.108 66.8 136.108 66.912C136.108 67.024 136.108 67.128 136.108 67.224H128.236C128.236 68.456 128.54 69.44 129.148 70.176C129.756 70.912 130.628 71.28 131.764 71.28C132.58 71.28 133.284 71.064 133.876 70.632C134.484 70.2 134.86 69.616 135.004 68.88H136.084C135.892 69.872 135.404 70.68 134.62 71.304C133.852 71.928 132.9 72.24 131.764 72.24ZM128.308 66.504H134.98C134.964 66.088 134.844 65.624 134.62 65.112C134.412 64.6 134.068 64.152 133.588 63.768C133.124 63.384 132.508 63.192 131.74 63.192C130.684 63.192 129.876 63.52 129.316 64.176C128.756 64.832 128.42 65.608 128.308 66.504ZM146.078 72C145.566 72 145.238 71.856 145.094 71.568C144.95 71.28 144.878 70.936 144.878 70.536V63.144H143.27V62.256C143.846 62.256 144.246 62.224 144.47 62.16C144.694 62.08 144.83 61.864 144.878 61.512C144.926 61.16 144.95 60.568 144.95 59.736H145.934V62.256H148.214V63.144H145.934V71.064H148.214V72H146.078ZM154.193 72.24C152.673 72.24 151.529 71.776 150.761 70.848C150.009 69.904 149.633 68.712 149.633 67.272C149.633 65.8 150.017 64.6 150.785 63.672C151.553 62.728 152.689 62.256 154.193 62.256C155.665 62.256 156.785 62.72 157.553 63.648C158.337 64.56 158.729 65.768 158.729 67.272C158.729 68.216 158.561 69.064 158.225 69.816C157.905 70.552 157.409 71.144 156.737 71.592C156.081 72.024 155.233 72.24 154.193 72.24ZM154.193 71.256C155.089 71.256 155.785 71.056 156.281 70.656C156.777 70.256 157.121 69.752 157.313 69.144C157.521 68.52 157.625 67.888 157.625 67.248C157.625 66.592 157.521 65.96 157.313 65.352C157.121 64.728 156.777 64.216 156.281 63.816C155.785 63.4 155.089 63.192 154.193 63.192C153.297 63.192 152.601 63.4 152.105 63.816C151.609 64.216 151.257 64.728 151.049 65.352C150.841 65.96 150.737 66.592 150.737 67.248C150.737 67.888 150.841 68.52 151.049 69.144C151.257 69.752 151.609 70.256 152.105 70.656C152.601 71.056 153.297 71.256 154.193 71.256ZM166.608 72V62.256H167.52L167.616 64.848H167.664C167.712 64.704 167.792 64.496 167.904 64.224C168.032 63.936 168.216 63.648 168.456 63.36C168.696 63.056 169.016 62.8 169.416 62.592C169.816 62.368 170.312 62.256 170.904 62.256C171.544 62.256 172.056 62.384 172.44 62.64C172.84 62.88 173.152 63.2 173.376 63.6C173.6 64 173.76 64.416 173.856 64.848H173.904C173.952 64.704 174.04 64.496 174.168 64.224C174.312 63.936 174.512 63.648 174.768 63.36C175.04 63.056 175.384 62.8 175.8 62.592C176.216 62.368 176.72 62.256 177.312 62.256C177.952 62.256 178.472 62.384 178.872 62.64C179.272 62.896 179.584 63.224 179.808 63.624C180.032 64.008 180.192 64.424 180.288 64.872C180.384 65.32 180.44 65.752 180.456 66.168C180.472 66.568 180.48 66.904 180.48 67.176V72H179.496V67.152C179.496 66.88 179.48 66.536 179.448 66.12C179.432 65.688 179.344 65.256 179.184 64.824C179.04 64.376 178.8 64.008 178.464 63.72C178.128 63.416 177.648 63.264 177.024 63.264C176.336 63.264 175.776 63.456 175.344 63.84C174.912 64.224 174.584 64.728 174.36 65.352C174.152 65.976 174.048 66.656 174.048 67.392V72H173.064V67.152C173.064 66.88 173.048 66.536 173.016 66.12C173 65.688 172.912 65.256 172.752 64.824C172.608 64.376 172.368 64.008 172.032 63.72C171.696 63.416 171.216 63.264 170.592 63.264C169.904 63.264 169.344 63.456 168.912 63.84C168.48 64.224 168.152 64.728 167.928 65.352C167.72 65.976 167.616 66.656 167.616 67.392V72H166.608ZM181.443 76.272V75.36H182.691C183.011 75.36 183.267 75.264 183.459 75.072C183.651 74.88 183.899 74.472 184.203 73.848L185.403 71.232L181.587 62.256H182.739L185.979 70.032L189.411 62.256H190.587L185.163 74.04C184.875 74.68 184.619 75.16 184.395 75.48C184.171 75.8 183.931 76.008 183.675 76.104C183.419 76.216 183.107 76.272 182.739 76.272H181.443ZM202.868 72.24C202.228 72.24 201.676 72.128 201.212 71.904C200.764 71.68 200.396 71.408 200.108 71.088C199.82 70.768 199.604 70.472 199.46 70.2C199.316 69.928 199.22 69.736 199.172 69.624H199.124V75.84H198.02V62.256H198.956L199.148 64.896H199.196C199.228 64.784 199.308 64.592 199.436 64.32C199.58 64.032 199.788 63.736 200.06 63.432C200.348 63.112 200.716 62.84 201.164 62.616C201.628 62.376 202.188 62.256 202.844 62.256C203.788 62.256 204.58 62.48 205.22 62.928C205.876 63.376 206.372 63.976 206.708 64.728C207.06 65.48 207.236 66.328 207.236 67.272C207.236 68.216 207.06 69.064 206.708 69.816C206.356 70.568 205.852 71.16 205.196 71.592C204.556 72.024 203.78 72.24 202.868 72.24ZM202.748 71.208C203.548 71.208 204.196 71.024 204.692 70.656C205.204 70.272 205.572 69.776 205.796 69.168C206.036 68.56 206.156 67.92 206.156 67.248C206.156 66.576 206.02 65.944 205.748 65.352C205.492 64.744 205.1 64.256 204.572 63.888C204.044 63.504 203.38 63.312 202.58 63.312C201.62 63.312 200.812 63.664 200.156 64.368C199.516 65.056 199.196 66.016 199.196 67.248C199.196 68.512 199.54 69.488 200.228 70.176C200.916 70.864 201.756 71.208 202.748 71.208ZM213.232 72.24C211.712 72.24 210.568 71.776 209.8 70.848C209.048 69.904 208.672 68.712 208.672 67.272C208.672 65.8 209.056 64.6 209.824 63.672C210.592 62.728 211.728 62.256 213.232 62.256C214.704 62.256 215.824 62.72 216.592 63.648C217.376 64.56 217.768 65.768 217.768 67.272C217.768 68.216 217.6 69.064 217.264 69.816C216.944 70.552 216.448 71.144 215.776 71.592C215.12 72.024 214.272 72.24 213.232 72.24ZM213.232 71.256C214.128 71.256 214.824 71.056 215.32 70.656C215.816 70.256 216.16 69.752 216.352 69.144C216.56 68.52 216.664 67.888 216.664 67.248C216.664 66.592 216.56 65.96 216.352 65.352C216.16 64.728 215.816 64.216 215.32 63.816C214.824 63.4 214.128 63.192 213.232 63.192C212.336 63.192 211.64 63.4 211.144 63.816C210.648 64.216 210.296 64.728 210.088 65.352C209.88 65.96 209.776 66.592 209.776 67.248C209.776 67.888 209.88 68.52 210.088 69.144C210.296 69.752 210.648 70.256 211.144 70.656C211.64 71.056 212.336 71.256 213.232 71.256ZM220.053 72V62.256H220.989L221.133 64.752C221.293 64.064 221.669 63.472 222.261 62.976C222.853 62.48 223.685 62.24 224.757 62.256H225.285V63.48H224.757C223.669 63.48 222.869 63.656 222.357 64.008C221.845 64.344 221.509 64.8 221.349 65.376C221.205 65.952 221.133 66.592 221.133 67.296V72H220.053ZM229.422 72C228.91 72 228.582 71.856 228.438 71.568C228.294 71.28 228.222 70.936 228.222 70.536V63.144H226.614V62.256C227.19 62.256 227.59 62.224 227.814 62.16C228.038 62.08 228.174 61.864 228.222 61.512C228.27 61.16 228.294 60.568 228.294 59.736H229.278V62.256H231.558V63.144H229.278V71.064H231.558V72H229.422ZM234.575 72.072V63.144H232.991V62.256H234.575V59.832C234.575 59.448 234.647 59.112 234.791 58.824C234.951 58.536 235.279 58.392 235.775 58.392H238.823V59.304H235.703V62.256H238.631V63.144H235.703V72.072H234.575ZM244.099 72.24C242.579 72.24 241.435 71.776 240.667 70.848C239.915 69.904 239.539 68.712 239.539 67.272C239.539 65.8 239.923 64.6 240.691 63.672C241.459 62.728 242.595 62.256 244.099 62.256C245.571 62.256 246.691 62.72 247.459 63.648C248.243 64.56 248.635 65.768 248.635 67.272C248.635 68.216 248.467 69.064 248.131 69.816C247.811 70.552 247.315 71.144 246.643 71.592C245.987 72.024 245.139 72.24 244.099 72.24ZM244.099 71.256C244.995 71.256 245.691 71.056 246.187 70.656C246.683 70.256 247.027 69.752 247.219 69.144C247.427 68.52 247.531 67.888 247.531 67.248C247.531 66.592 247.427 65.96 247.219 65.352C247.027 64.728 246.683 64.216 246.187 63.816C245.691 63.4 244.995 63.192 244.099 63.192C243.203 63.192 242.507 63.4 242.011 63.816C241.515 64.216 241.163 64.728 240.955 65.352C240.747 65.96 240.643 66.592 240.643 67.248C240.643 67.888 240.747 68.52 240.955 69.144C241.163 69.752 241.515 70.256 242.011 70.656C242.507 71.056 243.203 71.256 244.099 71.256ZM250.944 72V58.488H252.048V72H250.944ZM255.296 61.224C255.024 61.24 254.84 61.168 254.744 61.008C254.648 60.848 254.6 60.656 254.6 60.432C254.6 60.224 254.648 60.048 254.744 59.904C254.84 59.76 255.024 59.688 255.296 59.688C255.552 59.688 255.728 59.76 255.824 59.904C255.92 60.048 255.968 60.224 255.968 60.432C255.968 60.672 255.92 60.864 255.824 61.008C255.728 61.152 255.552 61.224 255.296 61.224ZM254.72 72V62.256H255.8V72H254.72ZM262.427 72.24C260.907 72.24 259.763 71.776 258.995 70.848C258.243 69.904 257.867 68.712 257.867 67.272C257.867 65.8 258.251 64.6 259.019 63.672C259.787 62.728 260.923 62.256 262.427 62.256C263.899 62.256 265.019 62.72 265.787 63.648C266.571 64.56 266.963 65.768 266.963 67.272C266.963 68.216 266.795 69.064 266.459 69.816C266.139 70.552 265.643 71.144 264.971 71.592C264.315 72.024 263.467 72.24 262.427 72.24ZM262.427 71.256C263.323 71.256 264.019 71.056 264.515 70.656C265.011 70.256 265.355 69.752 265.547 69.144C265.755 68.52 265.859 67.888 265.859 67.248C265.859 66.592 265.755 65.96 265.547 65.352C265.355 64.728 265.011 64.216 264.515 63.816C264.019 63.4 263.323 63.192 262.427 63.192C261.531 63.192 260.835 63.4 260.339 63.816C259.843 64.216 259.491 64.728 259.283 65.352C259.075 65.96 258.971 66.592 258.971 67.248C258.971 67.888 259.075 68.52 259.283 69.144C259.491 69.752 259.843 70.256 260.339 70.656C260.835 71.056 261.531 71.256 262.427 71.256Z" fill="white"/>
</g>
<defs>
<clipPath id="clip0_181_3118">
<rect width="323" height="100" fill="white"/>
</clipPath>
</defs>
</svg>
