<svg width="323" height="100" viewBox="0 0 323 100" fill="none" xmlns="http://www.w3.org/2000/svg">
<g clip-path="url(#clip0_181_3118)">
<rect width="323" height="100" rx="20" fill="#1A1A1A"/>
<circle cx="73.5" cy="40.5" r="1.5" fill="#FED538"/>
<path d="M75 59.5C75 60.3284 74.3284 61 73.5 61C72.6716 61 72 60.3284 72 59.5C72 58.6716 72.6716 58 73.5 58C74.3284 58 75 58.6716 75 59.5Z" fill="#FED538"/>
<path d="M85.4091 46V34.3636H86.8182V39.5455H93.0227V34.3636H94.4318V46H93.0227V40.7955H86.8182V46H85.4091ZM99.9301 46.1818C99.0892 46.1818 98.3638 45.9962 97.754 45.625C97.1479 45.25 96.6801 44.7273 96.3506 44.0568C96.0248 43.3826 95.8619 42.5985 95.8619 41.7045C95.8619 40.8106 96.0248 40.0227 96.3506 39.3409C96.6801 38.6553 97.1384 38.1212 97.7256 37.7386C98.3165 37.3523 99.0059 37.1591 99.7937 37.1591C100.248 37.1591 100.697 37.2348 101.14 37.3864C101.584 37.5379 101.987 37.7841 102.351 38.125C102.714 38.4621 103.004 38.9091 103.22 39.4659C103.436 40.0227 103.544 40.7083 103.544 41.5227V42.0909H96.8165V40.9318H102.18C102.18 40.4394 102.082 40 101.885 39.6136C101.691 39.2273 101.415 38.9223 101.055 38.6989C100.699 38.4754 100.279 38.3636 99.7937 38.3636C99.2597 38.3636 98.7975 38.4962 98.4074 38.7614C98.021 39.0227 97.7237 39.3636 97.5153 39.7841C97.307 40.2045 97.2028 40.6553 97.2028 41.1364V41.9091C97.2028 42.5682 97.3165 43.1269 97.5437 43.5852C97.7748 44.0398 98.0949 44.3864 98.504 44.625C98.9131 44.8598 99.3884 44.9773 99.9301 44.9773C100.282 44.9773 100.601 44.928 100.885 44.8295C101.173 44.7273 101.421 44.5758 101.629 44.375C101.837 44.1705 101.998 43.9167 102.112 43.6136L103.407 43.9773C103.271 44.4167 103.042 44.803 102.72 45.1364C102.398 45.4659 102 45.7235 101.527 45.9091C101.053 46.0909 100.521 46.1818 99.9301 46.1818ZM106.124 34.3636V46H104.784V34.3636H106.124ZM109.121 34.3636V46H107.78V34.3636H109.121ZM114.323 46.1818C113.535 46.1818 112.844 45.9943 112.249 45.6193C111.658 45.2443 111.196 44.7197 110.862 44.0455C110.533 43.3712 110.368 42.5833 110.368 41.6818C110.368 40.7727 110.533 39.9792 110.862 39.3011C111.196 38.6231 111.658 38.0966 112.249 37.7216C112.844 37.3466 113.535 37.1591 114.323 37.1591C115.111 37.1591 115.8 37.3466 116.391 37.7216C116.986 38.0966 117.448 38.6231 117.777 39.3011C118.111 39.9792 118.277 40.7727 118.277 41.6818C118.277 42.5833 118.111 43.3712 117.777 44.0455C117.448 44.7197 116.986 45.2443 116.391 45.6193C115.8 45.9943 115.111 46.1818 114.323 46.1818ZM114.323 44.9773C114.921 44.9773 115.414 44.8239 115.8 44.517C116.186 44.2102 116.472 43.8068 116.658 43.3068C116.844 42.8068 116.936 42.2652 116.936 41.6818C116.936 41.0985 116.844 40.5549 116.658 40.0511C116.472 39.5473 116.186 39.1402 115.8 38.8295C115.414 38.5189 114.921 38.3636 114.323 38.3636C113.724 38.3636 113.232 38.5189 112.845 38.8295C112.459 39.1402 112.173 39.5473 111.987 40.0511C111.802 40.5549 111.709 41.0985 111.709 41.6818C111.709 42.2652 111.802 42.8068 111.987 43.3068C112.173 43.8068 112.459 44.2102 112.845 44.517C113.232 44.8239 113.724 44.9773 114.323 44.9773ZM121.297 34.3636L121.183 42.7273H119.865L119.751 34.3636H121.297ZM120.524 46.0909C120.244 46.0909 120.003 45.9905 119.803 45.7898C119.602 45.589 119.501 45.3485 119.501 45.0682C119.501 44.7879 119.602 44.5473 119.803 44.3466C120.003 44.1458 120.244 44.0455 120.524 44.0455C120.804 44.0455 121.045 44.1458 121.246 44.3466C121.446 44.5473 121.547 44.7879 121.547 45.0682C121.547 45.2538 121.5 45.4242 121.405 45.5795C121.314 45.7348 121.191 45.8598 121.036 45.9545C120.884 46.0455 120.714 46.0909 120.524 46.0909ZM128.468 34.3636V46H127.059V34.3636H128.468ZM131.493 34.3636V35.3864C131.493 35.697 131.437 36.0284 131.323 36.3807C131.213 36.7292 131.05 37.0682 130.834 37.3977C130.622 37.7235 130.365 38.0076 130.062 38.25L129.334 37.6591C129.573 37.3182 129.779 36.964 129.954 36.5966C130.132 36.2254 130.221 35.8295 130.221 35.4091V34.3636H131.493ZM132.121 46V37.2727H133.416V38.6364H133.53C133.712 38.1705 134.005 37.8087 134.411 37.5511C134.816 37.2898 135.303 37.1591 135.871 37.1591C136.447 37.1591 136.926 37.2898 137.309 37.5511C137.695 37.8087 137.996 38.1705 138.212 38.6364H138.303C138.526 38.1856 138.862 37.8277 139.309 37.5625C139.755 37.2936 140.291 37.1591 140.916 37.1591C141.697 37.1591 142.335 37.4034 142.831 37.892C143.327 38.3769 143.576 39.1326 143.576 40.1591V46H142.235V40.1591C142.235 39.5152 142.059 39.0549 141.706 38.7784C141.354 38.5019 140.939 38.3636 140.462 38.3636C139.848 38.3636 139.373 38.5492 139.036 38.9205C138.699 39.2879 138.53 39.7538 138.53 40.3182V46H137.166V40.0227C137.166 39.5265 137.005 39.1269 136.684 38.8239C136.362 38.517 135.947 38.3636 135.439 38.3636C135.091 38.3636 134.765 38.4564 134.462 38.642C134.163 38.8277 133.92 39.0852 133.735 39.4148C133.553 39.7405 133.462 40.1174 133.462 40.5455V46H132.121Z" fill="#C7C7C7"/>
<path d="M148.978 46V34.3636H153.24C154.066 34.3636 154.749 34.5 155.291 34.7727C155.833 35.0417 156.238 35.4072 156.507 35.8693C156.776 36.3277 156.91 36.8447 156.91 37.4205C156.91 37.9053 156.821 38.3144 156.643 38.6477C156.465 38.9773 156.227 39.2424 155.927 39.4432C155.632 39.6402 155.306 39.7841 154.95 39.875V39.9886C155.336 40.0076 155.713 40.1326 156.081 40.3636C156.452 40.5909 156.759 40.9148 157.001 41.3352C157.244 41.7557 157.365 42.267 157.365 42.8693C157.365 43.464 157.225 43.9981 156.944 44.4716C156.668 44.9413 156.24 45.3144 155.66 45.5909C155.081 45.8636 154.34 46 153.439 46H148.978ZM150.734 44.4943H153.268C154.109 44.4943 154.711 44.3314 155.075 44.0057C155.439 43.6799 155.62 43.2727 155.62 42.7841C155.62 42.4167 155.528 42.0795 155.342 41.7727C155.156 41.4659 154.891 41.2216 154.547 41.0398C154.206 40.858 153.8 40.767 153.331 40.767H150.734V44.4943ZM150.734 39.3977H153.086C153.48 39.3977 153.834 39.322 154.149 39.1705C154.467 39.0189 154.719 38.8068 154.905 38.5341C155.094 38.2576 155.189 37.9318 155.189 37.5568C155.189 37.0758 155.02 36.6723 154.683 36.3466C154.346 36.0208 153.829 35.858 153.132 35.858H150.734V39.3977ZM158.511 46V37.2727H160.153V38.6591H160.244C160.403 38.1894 160.683 37.8201 161.085 37.5511C161.49 37.2784 161.948 37.142 162.46 37.142C162.566 37.142 162.691 37.1458 162.835 37.1534C162.982 37.161 163.098 37.1705 163.181 37.1818V38.8068C163.113 38.7879 162.992 38.767 162.818 38.7443C162.643 38.7178 162.469 38.7045 162.295 38.7045C161.893 38.7045 161.535 38.7898 161.221 38.9602C160.91 39.1269 160.664 39.3598 160.482 39.6591C160.301 39.9545 160.21 40.2917 160.21 40.6705V46H158.511ZM166.313 46.1932C165.76 46.1932 165.26 46.0909 164.813 45.8864C164.366 45.678 164.012 45.3769 163.751 44.983C163.493 44.589 163.364 44.1061 163.364 43.5341C163.364 43.0417 163.459 42.6364 163.648 42.3182C163.838 42 164.093 41.7481 164.415 41.5625C164.737 41.3769 165.097 41.2367 165.495 41.142C165.893 41.0473 166.298 40.9754 166.711 40.9261C167.234 40.8655 167.658 40.8163 167.984 40.7784C168.309 40.7367 168.546 40.6705 168.694 40.5795C168.841 40.4886 168.915 40.3409 168.915 40.1364V40.0966C168.915 39.6004 168.775 39.2159 168.495 38.9432C168.218 38.6705 167.805 38.5341 167.256 38.5341C166.684 38.5341 166.234 38.661 165.904 38.9148C165.578 39.1648 165.353 39.4432 165.228 39.75L163.631 39.3864C163.821 38.8561 164.097 38.428 164.461 38.1023C164.828 37.7727 165.251 37.5341 165.728 37.3864C166.205 37.2348 166.707 37.1591 167.234 37.1591C167.582 37.1591 167.951 37.2008 168.341 37.2841C168.735 37.3636 169.103 37.5114 169.444 37.7273C169.788 37.9432 170.071 38.2519 170.29 38.6534C170.51 39.0511 170.62 39.5682 170.62 40.2045V46H168.961V44.8068H168.893C168.783 45.0265 168.618 45.2424 168.398 45.4545C168.179 45.6667 167.896 45.8428 167.552 45.983C167.207 46.1231 166.794 46.1932 166.313 46.1932ZM166.682 44.8295C167.152 44.8295 167.554 44.7367 167.887 44.5511C168.224 44.3655 168.48 44.1231 168.654 43.8239C168.832 43.5208 168.921 43.197 168.921 42.8523V41.7273C168.86 41.7879 168.743 41.8447 168.569 41.8977C168.398 41.947 168.203 41.9905 167.984 42.0284C167.764 42.0625 167.55 42.0947 167.341 42.125C167.133 42.1515 166.959 42.1742 166.819 42.1932C166.489 42.2348 166.188 42.3049 165.915 42.4034C165.646 42.5019 165.43 42.6439 165.268 42.8295C165.109 43.0114 165.029 43.2538 165.029 43.5568C165.029 43.9773 165.184 44.2955 165.495 44.5114C165.805 44.7235 166.201 44.8295 166.682 44.8295ZM173.782 40.8182V46H172.083V37.2727H173.713V38.6932H173.821C174.022 38.2311 174.336 37.8598 174.764 37.5795C175.196 37.2992 175.74 37.1591 176.395 37.1591C176.99 37.1591 177.511 37.2841 177.958 37.5341C178.405 37.7803 178.751 38.1477 178.997 38.6364C179.244 39.125 179.367 39.7292 179.367 40.4489V46H177.668V40.6534C177.668 40.0208 177.503 39.5265 177.174 39.1705C176.844 38.8106 176.391 38.6307 175.816 38.6307C175.422 38.6307 175.071 38.7159 174.764 38.8864C174.461 39.0568 174.221 39.3068 174.043 39.6364C173.869 39.9621 173.782 40.3561 173.782 40.8182ZM184.112 46.1705C183.408 46.1705 182.779 45.9905 182.226 45.6307C181.677 45.267 181.245 44.75 180.93 44.0795C180.62 43.4053 180.464 42.5966 180.464 41.6534C180.464 40.7102 180.622 39.9034 180.936 39.233C181.254 38.5625 181.69 38.0492 182.243 37.6932C182.796 37.3371 183.423 37.1591 184.124 37.1591C184.665 37.1591 185.101 37.25 185.43 37.4318C185.764 37.6098 186.021 37.8182 186.203 38.0568C186.389 38.2955 186.533 38.5057 186.635 38.6875H186.737V34.3636H188.436V46H186.777V44.642H186.635C186.533 44.8277 186.385 45.0398 186.192 45.2784C186.002 45.517 185.741 45.7254 185.408 45.9034C185.074 46.0814 184.643 46.1705 184.112 46.1705ZM184.487 44.7216C184.976 44.7216 185.389 44.5928 185.726 44.3352C186.067 44.0739 186.324 43.7121 186.499 43.25C186.677 42.7879 186.766 42.25 186.766 41.6364C186.766 41.0303 186.679 40.5 186.504 40.0455C186.33 39.5909 186.074 39.2367 185.737 38.983C185.4 38.7292 184.983 38.6023 184.487 38.6023C183.976 38.6023 183.55 38.7348 183.209 39C182.868 39.2652 182.61 39.6269 182.436 40.0852C182.266 40.5436 182.18 41.0606 182.18 41.6364C182.18 42.2197 182.268 42.7443 182.442 43.2102C182.616 43.6761 182.874 44.0455 183.214 44.3182C183.559 44.5871 183.983 44.7216 184.487 44.7216ZM193.737 46.1761C192.919 46.1761 192.205 45.9886 191.595 45.6136C190.985 45.2386 190.512 44.714 190.174 44.0398C189.837 43.3655 189.669 42.5777 189.669 41.6761C189.669 40.7708 189.837 39.9792 190.174 39.3011C190.512 38.6231 190.985 38.0966 191.595 37.7216C192.205 37.3466 192.919 37.1591 193.737 37.1591C194.555 37.1591 195.269 37.3466 195.879 37.7216C196.489 38.0966 196.962 38.6231 197.299 39.3011C197.637 39.9792 197.805 40.7708 197.805 41.6761C197.805 42.5777 197.637 43.3655 197.299 44.0398C196.962 44.714 196.489 45.2386 195.879 45.6136C195.269 45.9886 194.555 46.1761 193.737 46.1761ZM193.743 44.75C194.273 44.75 194.712 44.6098 195.061 44.3295C195.409 44.0492 195.667 43.6761 195.834 43.2102C196.004 42.7443 196.089 42.2311 196.089 41.6705C196.089 41.1136 196.004 40.6023 195.834 40.1364C195.667 39.6667 195.409 39.2898 195.061 39.0057C194.712 38.7216 194.273 38.5795 193.743 38.5795C193.209 38.5795 192.765 38.7216 192.413 39.0057C192.065 39.2898 191.805 39.6667 191.635 40.1364C191.468 40.6023 191.385 41.1136 191.385 41.6705C191.385 42.2311 191.468 42.7443 191.635 43.2102C191.805 43.6761 192.065 44.0492 192.413 44.3295C192.765 44.6098 193.209 44.75 193.743 44.75ZM200.6 40.8182V46H198.901V37.2727H200.532V38.6932H200.64C200.841 38.2311 201.155 37.8598 201.583 37.5795C202.015 37.2992 202.559 37.1591 203.214 37.1591C203.809 37.1591 204.329 37.2841 204.776 37.5341C205.223 37.7803 205.57 38.1477 205.816 38.6364C206.062 39.125 206.186 39.7292 206.186 40.4489V46H204.487V40.6534C204.487 40.0208 204.322 39.5265 203.992 39.1705C203.663 38.8106 203.21 38.6307 202.634 38.6307C202.24 38.6307 201.89 38.7159 201.583 38.8864C201.28 39.0568 201.04 39.3068 200.862 39.6364C200.687 39.9621 200.6 40.3561 200.6 40.8182ZM208.783 46.108C208.473 46.108 208.206 45.9981 207.982 45.7784C207.759 45.5549 207.647 45.286 207.647 44.9716C207.647 44.661 207.759 44.3958 207.982 44.1761C208.206 43.9527 208.473 43.8409 208.783 43.8409C209.094 43.8409 209.361 43.9527 209.584 44.1761C209.808 44.3958 209.92 44.661 209.92 44.9716C209.92 45.1799 209.867 45.3712 209.761 45.5455C209.658 45.7159 209.522 45.8523 209.351 45.9545C209.181 46.0568 208.992 46.108 208.783 46.108Z" fill="#FED538"/>
<path d="M87.5227 65L84.3409 53.3636H85.7727L88.2045 62.8409H88.3182L90.7955 53.3636H92.3864L94.8636 62.8409H94.9773L97.4091 53.3636H98.8409L95.6591 65H94.2045L91.6364 55.7273H91.5455L88.9773 65H87.5227ZM102.461 65.1818C101.62 65.1818 100.895 64.9962 100.285 64.625C99.6792 64.25 99.2114 63.7273 98.8818 63.0568C98.5561 62.3826 98.3932 61.5985 98.3932 60.7045C98.3932 59.8106 98.5561 59.0227 98.8818 58.3409C99.2114 57.6553 99.6697 57.1212 100.257 56.7386C100.848 56.3523 101.537 56.1591 102.325 56.1591C102.78 56.1591 103.228 56.2348 103.672 56.3864C104.115 56.5379 104.518 56.7841 104.882 57.125C105.245 57.4621 105.535 57.9091 105.751 58.4659C105.967 59.0227 106.075 59.7083 106.075 60.5227V61.0909H99.3477V59.9318H104.711C104.711 59.4394 104.613 59 104.416 58.6136C104.223 58.2273 103.946 57.9223 103.586 57.6989C103.23 57.4754 102.81 57.3636 102.325 57.3636C101.791 57.3636 101.329 57.4962 100.939 57.7614C100.552 58.0227 100.255 58.3636 100.047 58.7841C99.8383 59.2045 99.7341 59.6553 99.7341 60.1364V60.9091C99.7341 61.5682 99.8477 62.1269 100.075 62.5852C100.306 63.0398 100.626 63.3864 101.035 63.625C101.444 63.8598 101.92 63.9773 102.461 63.9773C102.814 63.9773 103.132 63.928 103.416 63.8295C103.704 63.7273 103.952 63.5758 104.16 63.375C104.369 63.1705 104.53 62.9167 104.643 62.6136L105.939 62.9773C105.802 63.4167 105.573 63.803 105.251 64.1364C104.929 64.4659 104.531 64.7235 104.058 64.9091C103.584 65.0909 103.052 65.1818 102.461 65.1818ZM108.656 53.3636V65H107.315V53.3636H108.656ZM113.857 65.1818C113.039 65.1818 112.334 64.9886 111.743 64.6023C111.153 64.2159 110.698 63.6837 110.38 63.0057C110.062 62.3277 109.903 61.553 109.903 60.6818C109.903 59.7955 110.065 59.0133 110.391 58.3352C110.721 57.6534 111.179 57.1212 111.766 56.7386C112.357 56.3523 113.046 56.1591 113.834 56.1591C114.448 56.1591 115.001 56.2727 115.493 56.5C115.986 56.7273 116.389 57.0455 116.704 57.4545C117.018 57.8636 117.213 58.3409 117.289 58.8864H115.948C115.846 58.4886 115.618 58.1364 115.266 57.8295C114.918 57.5189 114.448 57.3636 113.857 57.3636C113.334 57.3636 112.876 57.5 112.482 57.7727C112.092 58.0417 111.787 58.4223 111.567 58.9148C111.351 59.4034 111.243 59.9773 111.243 60.6364C111.243 61.3106 111.35 61.8977 111.562 62.3977C111.778 62.8977 112.081 63.286 112.471 63.5625C112.865 63.839 113.327 63.9773 113.857 63.9773C114.206 63.9773 114.522 63.9167 114.806 63.7955C115.09 63.6742 115.331 63.5 115.528 63.2727C115.725 63.0455 115.865 62.7727 115.948 62.4545H117.289C117.213 62.9697 117.026 63.4337 116.726 63.8466C116.431 64.2557 116.039 64.5814 115.55 64.8239C115.065 65.0625 114.501 65.1818 113.857 65.1818ZM121.995 65.1818C121.207 65.1818 120.515 64.9943 119.921 64.6193C119.33 64.2443 118.868 63.7197 118.534 63.0455C118.205 62.3712 118.04 61.5833 118.04 60.6818C118.04 59.7727 118.205 58.9792 118.534 58.3011C118.868 57.6231 119.33 57.0966 119.921 56.7216C120.515 56.3466 121.207 56.1591 121.995 56.1591C122.782 56.1591 123.472 56.3466 124.063 56.7216C124.657 57.0966 125.12 57.6231 125.449 58.3011C125.782 58.9792 125.949 59.7727 125.949 60.6818C125.949 61.5833 125.782 62.3712 125.449 63.0455C125.12 63.7197 124.657 64.2443 124.063 64.6193C123.472 64.9943 122.782 65.1818 121.995 65.1818ZM121.995 63.9773C122.593 63.9773 123.086 63.8239 123.472 63.517C123.858 63.2102 124.144 62.8068 124.33 62.3068C124.515 61.8068 124.608 61.2652 124.608 60.6818C124.608 60.0985 124.515 59.5549 124.33 59.0511C124.144 58.5473 123.858 58.1402 123.472 57.8295C123.086 57.5189 122.593 57.3636 121.995 57.3636C121.396 57.3636 120.904 57.5189 120.517 57.8295C120.131 58.1402 119.845 58.5473 119.659 59.0511C119.474 59.5549 119.381 60.0985 119.381 60.6818C119.381 61.2652 119.474 61.8068 119.659 62.3068C119.845 62.8068 120.131 63.2102 120.517 63.517C120.904 63.8239 121.396 63.9773 121.995 63.9773ZM127.196 65V56.2727H128.491V57.6364H128.605C128.787 57.1705 129.08 56.8087 129.486 56.5511C129.891 56.2898 130.378 56.1591 130.946 56.1591C131.522 56.1591 132.001 56.2898 132.384 56.5511C132.77 56.8087 133.071 57.1705 133.287 57.6364H133.378C133.601 57.1856 133.937 56.8277 134.384 56.5625C134.83 56.2936 135.366 56.1591 135.991 56.1591C136.772 56.1591 137.41 56.4034 137.906 56.892C138.402 57.3769 138.651 58.1326 138.651 59.1591V65H137.31V59.1591C137.31 58.5152 137.134 58.0549 136.781 57.7784C136.429 57.5019 136.014 57.3636 135.537 57.3636C134.923 57.3636 134.448 57.5492 134.111 57.9205C133.774 58.2879 133.605 58.7538 133.605 59.3182V65H132.241V59.0227C132.241 58.5265 132.08 58.1269 131.759 57.8239C131.437 57.517 131.022 57.3636 130.514 57.3636C130.166 57.3636 129.84 57.4564 129.537 57.642C129.238 57.8277 128.995 58.0852 128.81 58.4148C128.628 58.7405 128.537 59.1174 128.537 59.5455V65H127.196ZM143.961 65.1818C143.12 65.1818 142.395 64.9962 141.785 64.625C141.179 64.25 140.711 63.7273 140.382 63.0568C140.056 62.3826 139.893 61.5985 139.893 60.7045C139.893 59.8106 140.056 59.0227 140.382 58.3409C140.711 57.6553 141.17 57.1212 141.757 56.7386C142.348 56.3523 143.037 56.1591 143.825 56.1591C144.28 56.1591 144.728 56.2348 145.172 56.3864C145.615 56.5379 146.018 56.7841 146.382 57.125C146.745 57.4621 147.035 57.9091 147.251 58.4659C147.467 59.0227 147.575 59.7083 147.575 60.5227V61.0909H140.848V59.9318H146.211C146.211 59.4394 146.113 59 145.916 58.6136C145.723 58.2273 145.446 57.9223 145.086 57.6989C144.73 57.4754 144.31 57.3636 143.825 57.3636C143.291 57.3636 142.829 57.4962 142.439 57.7614C142.052 58.0227 141.755 58.3636 141.547 58.7841C141.338 59.2045 141.234 59.6553 141.234 60.1364V60.9091C141.234 61.5682 141.348 62.1269 141.575 62.5852C141.806 63.0398 142.126 63.3864 142.535 63.625C142.944 63.8598 143.42 63.9773 143.961 63.9773C144.314 63.9773 144.632 63.928 144.916 63.8295C145.204 63.7273 145.452 63.5758 145.66 63.375C145.869 63.1705 146.03 62.9167 146.143 62.6136L147.439 62.9773C147.302 63.4167 147.073 63.803 146.751 64.1364C146.429 64.4659 146.031 64.7235 145.558 64.9091C145.084 65.0909 144.552 65.1818 143.961 65.1818ZM156.31 56.2727V57.4091H151.787V56.2727H156.31ZM153.106 54.1818H154.447V62.5C154.447 62.8788 154.502 63.1629 154.611 63.3523C154.725 63.5379 154.869 63.6629 155.043 63.7273C155.221 63.7879 155.409 63.8182 155.606 63.8182C155.753 63.8182 155.875 63.8106 155.969 63.7955C156.064 63.7765 156.14 63.7614 156.197 63.75L156.469 64.9545C156.378 64.9886 156.252 65.0227 156.089 65.0568C155.926 65.0947 155.719 65.1136 155.469 65.1136C155.091 65.1136 154.719 65.0322 154.356 64.8693C153.996 64.7064 153.697 64.4583 153.458 64.125C153.223 63.7917 153.106 63.3712 153.106 62.8636V54.1818ZM160.979 65.1818C160.191 65.1818 159.5 64.9943 158.905 64.6193C158.314 64.2443 157.852 63.7197 157.519 63.0455C157.189 62.3712 157.024 61.5833 157.024 60.6818C157.024 59.7727 157.189 58.9792 157.519 58.3011C157.852 57.6231 158.314 57.0966 158.905 56.7216C159.5 56.3466 160.191 56.1591 160.979 56.1591C161.767 56.1591 162.456 56.3466 163.047 56.7216C163.642 57.0966 164.104 57.6231 164.434 58.3011C164.767 58.9792 164.934 59.7727 164.934 60.6818C164.934 61.5833 164.767 62.3712 164.434 63.0455C164.104 63.7197 163.642 64.2443 163.047 64.6193C162.456 64.9943 161.767 65.1818 160.979 65.1818ZM160.979 63.9773C161.577 63.9773 162.07 63.8239 162.456 63.517C162.843 63.2102 163.129 62.8068 163.314 62.3068C163.5 61.8068 163.593 61.2652 163.593 60.6818C163.593 60.0985 163.5 59.5549 163.314 59.0511C163.129 58.5473 162.843 58.1402 162.456 57.8295C162.07 57.5189 161.577 57.3636 160.979 57.3636C160.38 57.3636 159.888 57.5189 159.502 57.8295C159.115 58.1402 158.829 58.5473 158.644 59.0511C158.458 59.5549 158.365 60.0985 158.365 60.6818C158.365 61.2652 158.458 61.8068 158.644 62.3068C158.829 62.8068 159.115 63.2102 159.502 63.517C159.888 63.8239 160.38 63.9773 160.979 63.9773ZM169.88 65V56.2727H171.176V57.6364H171.289C171.471 57.1705 171.765 56.8087 172.17 56.5511C172.575 56.2898 173.062 56.1591 173.63 56.1591C174.206 56.1591 174.685 56.2898 175.068 56.5511C175.454 56.8087 175.755 57.1705 175.971 57.6364H176.062C176.286 57.1856 176.621 56.8277 177.068 56.5625C177.515 56.2936 178.051 56.1591 178.676 56.1591C179.456 56.1591 180.094 56.4034 180.591 56.892C181.087 57.3769 181.335 58.1326 181.335 59.1591V65H179.994V59.1591C179.994 58.5152 179.818 58.0549 179.466 57.7784C179.113 57.5019 178.699 57.3636 178.221 57.3636C177.608 57.3636 177.132 57.5492 176.795 57.9205C176.458 58.2879 176.289 58.7538 176.289 59.3182V65H174.926V59.0227C174.926 58.5265 174.765 58.1269 174.443 57.8239C174.121 57.517 173.706 57.3636 173.199 57.3636C172.85 57.3636 172.524 57.4564 172.221 57.642C171.922 57.8277 171.68 58.0852 171.494 58.4148C171.312 58.7405 171.221 59.1174 171.221 59.5455V65H169.88ZM183.538 68.2727C183.311 68.2727 183.108 68.2538 182.93 68.2159C182.752 68.1818 182.629 68.1477 182.561 68.1136L182.901 66.9318C183.227 67.0152 183.515 67.0455 183.765 67.0227C184.015 67 184.237 66.8883 184.43 66.6875C184.627 66.4905 184.807 66.1705 184.97 65.7273L185.22 65.0455L181.992 56.2727H183.447L185.856 63.2273H185.947L188.356 56.2727H189.811L186.106 66.2727C185.939 66.7235 185.733 67.0966 185.487 67.392C185.24 67.6913 184.954 67.9129 184.629 68.0568C184.307 68.2008 183.943 68.2727 183.538 68.2727ZM194.48 68.2727V56.2727H195.776V57.6591H195.935C196.033 57.5076 196.17 57.3144 196.344 57.0795C196.522 56.8409 196.776 56.6288 197.105 56.4432C197.439 56.2538 197.889 56.1591 198.458 56.1591C199.193 56.1591 199.84 56.3428 200.401 56.7102C200.961 57.0777 201.399 57.5985 201.713 58.2727C202.028 58.947 202.185 59.7424 202.185 60.6591C202.185 61.5833 202.028 62.3845 201.713 63.0625C201.399 63.7367 200.963 64.2595 200.407 64.6307C199.85 64.9981 199.208 65.1818 198.48 65.1818C197.92 65.1818 197.471 65.089 197.134 64.9034C196.797 64.714 196.537 64.5 196.355 64.2614C196.174 64.0189 196.033 63.8182 195.935 63.6591H195.821V68.2727H194.48ZM195.799 60.6364C195.799 61.2955 195.895 61.8769 196.088 62.3807C196.282 62.8807 196.564 63.2727 196.935 63.5568C197.306 63.8371 197.761 63.9773 198.299 63.9773C198.859 63.9773 199.327 63.8295 199.702 63.5341C200.081 63.2348 200.365 62.8333 200.554 62.3295C200.747 61.822 200.844 61.2576 200.844 60.6364C200.844 60.0227 200.749 59.4697 200.56 58.9773C200.374 58.4811 200.092 58.089 199.713 57.8011C199.338 57.5095 198.867 57.3636 198.299 57.3636C197.753 57.3636 197.295 57.5019 196.924 57.7784C196.552 58.0511 196.272 58.4337 196.083 58.9261C195.893 59.4148 195.799 59.9848 195.799 60.6364ZM206.976 65.1818C206.188 65.1818 205.497 64.9943 204.902 64.6193C204.311 64.2443 203.849 63.7197 203.516 63.0455C203.186 62.3712 203.021 61.5833 203.021 60.6818C203.021 59.7727 203.186 58.9792 203.516 58.3011C203.849 57.6231 204.311 57.0966 204.902 56.7216C205.497 56.3466 206.188 56.1591 206.976 56.1591C207.764 56.1591 208.453 56.3466 209.044 56.7216C209.639 57.0966 210.101 57.6231 210.43 58.3011C210.764 58.9792 210.93 59.7727 210.93 60.6818C210.93 61.5833 210.764 62.3712 210.43 63.0455C210.101 63.7197 209.639 64.2443 209.044 64.6193C208.453 64.9943 207.764 65.1818 206.976 65.1818ZM206.976 63.9773C207.574 63.9773 208.067 63.8239 208.453 63.517C208.839 63.2102 209.125 62.8068 209.311 62.3068C209.497 61.8068 209.589 61.2652 209.589 60.6818C209.589 60.0985 209.497 59.5549 209.311 59.0511C209.125 58.5473 208.839 58.1402 208.453 57.8295C208.067 57.5189 207.574 57.3636 206.976 57.3636C206.377 57.3636 205.885 57.5189 205.499 57.8295C205.112 58.1402 204.826 58.5473 204.641 59.0511C204.455 59.5549 204.362 60.0985 204.362 60.6818C204.362 61.2652 204.455 61.8068 204.641 62.3068C204.826 62.8068 205.112 63.2102 205.499 63.517C205.885 63.8239 206.377 63.9773 206.976 63.9773ZM212.177 65V56.2727H213.473V57.5909H213.564C213.723 57.1591 214.011 56.8087 214.427 56.5398C214.844 56.2708 215.314 56.1364 215.836 56.1364C215.935 56.1364 216.058 56.1383 216.206 56.142C216.353 56.1458 216.465 56.1515 216.541 56.1591V57.5227C216.495 57.5114 216.391 57.4943 216.228 57.4716C216.069 57.4451 215.901 57.4318 215.723 57.4318C215.298 57.4318 214.92 57.5208 214.586 57.6989C214.257 57.8731 213.995 58.1155 213.802 58.4261C213.613 58.733 213.518 59.0833 213.518 59.4773V65H212.177ZM221.673 56.2727V57.4091H217.15V56.2727H221.673ZM218.468 54.1818H219.809V62.5C219.809 62.8788 219.864 63.1629 219.974 63.3523C220.087 63.5379 220.231 63.6629 220.406 63.7273C220.584 63.7879 220.771 63.8182 220.968 63.8182C221.116 63.8182 221.237 63.8106 221.332 63.7955C221.427 63.7765 221.502 63.7614 221.559 63.75L221.832 64.9545C221.741 64.9886 221.614 65.0227 221.451 65.0568C221.288 65.0947 221.082 65.1136 220.832 65.1136C220.453 65.1136 220.082 65.0322 219.718 64.8693C219.358 64.7064 219.059 64.4583 218.82 64.125C218.586 63.7917 218.468 63.3712 218.468 62.8636V54.1818ZM226.776 56.2727V57.4091H222.072V56.2727H226.776ZM223.481 65V55.0682C223.481 54.5682 223.598 54.1515 223.833 53.8182C224.068 53.4848 224.373 53.2348 224.748 53.0682C225.123 52.9015 225.519 52.8182 225.935 52.8182C226.265 52.8182 226.534 52.8447 226.742 52.8977C226.95 52.9508 227.106 53 227.208 53.0455L226.822 54.2045C226.753 54.1818 226.659 54.1534 226.538 54.1193C226.42 54.0852 226.265 54.0682 226.072 54.0682C225.628 54.0682 225.308 54.1799 225.111 54.4034C224.918 54.6269 224.822 54.9545 224.822 55.3864V65H223.481ZM231.041 65.1818C230.254 65.1818 229.562 64.9943 228.968 64.6193C228.377 64.2443 227.915 63.7197 227.581 63.0455C227.252 62.3712 227.087 61.5833 227.087 60.6818C227.087 59.7727 227.252 58.9792 227.581 58.3011C227.915 57.6231 228.377 57.0966 228.968 56.7216C229.562 56.3466 230.254 56.1591 231.041 56.1591C231.829 56.1591 232.519 56.3466 233.11 56.7216C233.704 57.0966 234.166 57.6231 234.496 58.3011C234.829 58.9792 234.996 59.7727 234.996 60.6818C234.996 61.5833 234.829 62.3712 234.496 63.0455C234.166 63.7197 233.704 64.2443 233.11 64.6193C232.519 64.9943 231.829 65.1818 231.041 65.1818ZM231.041 63.9773C231.64 63.9773 232.132 63.8239 232.519 63.517C232.905 63.2102 233.191 62.8068 233.377 62.3068C233.562 61.8068 233.655 61.2652 233.655 60.6818C233.655 60.0985 233.562 59.5549 233.377 59.0511C233.191 58.5473 232.905 58.1402 232.519 57.8295C232.132 57.5189 231.64 57.3636 231.041 57.3636C230.443 57.3636 229.951 57.5189 229.564 57.8295C229.178 58.1402 228.892 58.5473 228.706 59.0511C228.521 59.5549 228.428 60.0985 228.428 60.6818C228.428 61.2652 228.521 61.8068 228.706 62.3068C228.892 62.8068 229.178 63.2102 229.564 63.517C229.951 63.8239 230.443 63.9773 231.041 63.9773ZM237.584 53.3636V65H236.243V53.3636H237.584ZM239.24 65V56.2727H240.581V65H239.24ZM239.922 54.8182C239.66 54.8182 239.435 54.7292 239.245 54.5511C239.06 54.3731 238.967 54.1591 238.967 53.9091C238.967 53.6591 239.06 53.4451 239.245 53.267C239.435 53.089 239.66 53 239.922 53C240.183 53 240.406 53.089 240.592 53.267C240.781 53.4451 240.876 53.6591 240.876 53.9091C240.876 54.1591 240.781 54.3731 240.592 54.5511C240.406 54.7292 240.183 54.8182 239.922 54.8182ZM245.782 65.1818C244.994 65.1818 244.303 64.9943 243.708 64.6193C243.117 64.2443 242.655 63.7197 242.322 63.0455C241.992 62.3712 241.828 61.5833 241.828 60.6818C241.828 59.7727 241.992 58.9792 242.322 58.3011C242.655 57.6231 243.117 57.0966 243.708 56.7216C244.303 56.3466 244.994 56.1591 245.782 56.1591C246.57 56.1591 247.259 56.3466 247.85 56.7216C248.445 57.0966 248.907 57.6231 249.237 58.3011C249.57 58.9792 249.737 59.7727 249.737 60.6818C249.737 61.5833 249.57 62.3712 249.237 63.0455C248.907 63.7197 248.445 64.2443 247.85 64.6193C247.259 64.9943 246.57 65.1818 245.782 65.1818ZM245.782 63.9773C246.381 63.9773 246.873 63.8239 247.259 63.517C247.646 63.2102 247.932 62.8068 248.117 62.3068C248.303 61.8068 248.396 61.2652 248.396 60.6818C248.396 60.0985 248.303 59.5549 248.117 59.0511C247.932 58.5473 247.646 58.1402 247.259 57.8295C246.873 57.5189 246.381 57.3636 245.782 57.3636C245.184 57.3636 244.691 57.5189 244.305 57.8295C243.918 58.1402 243.632 58.5473 243.447 59.0511C243.261 59.5549 243.168 60.0985 243.168 60.6818C243.168 61.2652 243.261 61.8068 243.447 62.3068C243.632 62.8068 243.918 63.2102 244.305 63.517C244.691 63.8239 245.184 63.9773 245.782 63.9773Z" fill="#C7C7C7"/>
</g>
<defs>
<clipPath id="clip0_181_3118">
<rect width="323" height="100" fill="white"/>
</clipPath>
</defs>
</svg>
