<svg width="323" height="100" viewBox="0 0 323 100" fill="none" xmlns="http://www.w3.org/2000/svg">
<g clip-path="url(#clip0_181_3118)">
<rect width="323" height="100" rx="20" fill="#1A1A1A"/>
<circle cx="52.5" cy="37.5" r="2.5" fill="#FED538"/>
<circle cx="52.5" cy="60.5" r="2.5" fill="#FED538"/>
<path d="M65.7614 45V30.4545H67.5227V36.9318H75.2784V30.4545H77.0398V45H75.2784V38.4943H67.5227V45H65.7614ZM83.9126 45.2273C82.8615 45.2273 81.9548 44.9953 81.1925 44.5312C80.4349 44.0625 79.8501 43.4091 79.4382 42.571C79.031 41.7282 78.8274 40.7481 78.8274 39.6307C78.8274 38.5133 79.031 37.5284 79.4382 36.6761C79.8501 35.8191 80.4231 35.1515 81.157 34.6733C81.8956 34.1903 82.7573 33.9489 83.7422 33.9489C84.3104 33.9489 84.8714 34.0436 85.4254 34.233C85.9794 34.4223 86.4837 34.7301 86.9382 35.1562C87.3928 35.5777 87.755 36.1364 88.0249 36.8324C88.2947 37.5284 88.4297 38.3854 88.4297 39.4034V40.1136H80.0206V38.6648H86.7251C86.7251 38.0492 86.602 37.5 86.3558 37.017C86.1143 36.5341 85.7687 36.1529 85.3189 35.8736C84.8738 35.5942 84.3482 35.4545 83.7422 35.4545C83.0746 35.4545 82.4969 35.6203 82.0092 35.9517C81.5263 36.2784 81.1546 36.7045 80.8942 37.2301C80.6338 37.7557 80.5036 38.3191 80.5036 38.9205V39.8864C80.5036 40.7102 80.6456 41.4086 80.9297 41.9815C81.2185 42.5497 81.6186 42.983 82.13 43.2812C82.6413 43.5748 83.2356 43.7216 83.9126 43.7216C84.353 43.7216 84.7507 43.66 85.1058 43.5369C85.4657 43.4091 85.7758 43.2197 86.0362 42.9688C86.2966 42.7131 86.4979 42.3958 86.6399 42.017L88.2592 42.4716C88.0888 43.0208 87.8023 43.5038 87.3999 43.9205C86.9974 44.3324 86.5002 44.6544 85.9084 44.8864C85.3165 45.1136 84.6513 45.2273 83.9126 45.2273ZM91.6555 30.4545V45H89.9794V30.4545H91.6555ZM95.4016 30.4545V45H93.7255V30.4545H95.4016ZM101.903 45.2273C100.919 45.2273 100.054 44.9929 99.3111 44.5241C98.5724 44.0554 97.9948 43.3996 97.5781 42.5568C97.1662 41.714 96.9602 40.7292 96.9602 39.6023C96.9602 38.4659 97.1662 37.474 97.5781 36.6264C97.9948 35.7789 98.5724 35.1207 99.3111 34.652C100.054 34.1832 100.919 33.9489 101.903 33.9489C102.888 33.9489 103.75 34.1832 104.489 34.652C105.232 35.1207 105.81 35.7789 106.222 36.6264C106.638 37.474 106.847 38.4659 106.847 39.6023C106.847 40.7292 106.638 41.714 106.222 42.5568C105.81 43.3996 105.232 44.0554 104.489 44.5241C103.75 44.9929 102.888 45.2273 101.903 45.2273ZM101.903 43.7216C102.652 43.7216 103.267 43.5298 103.75 43.1463C104.233 42.7628 104.59 42.2585 104.822 41.6335C105.054 41.0085 105.17 40.3314 105.17 39.6023C105.17 38.8731 105.054 38.1937 104.822 37.5639C104.59 36.9342 104.233 36.4252 103.75 36.0369C103.267 35.6487 102.652 35.4545 101.903 35.4545C101.155 35.4545 100.54 35.6487 100.057 36.0369C99.5739 36.4252 99.2164 36.9342 98.9844 37.5639C98.7524 38.1937 98.6364 38.8731 98.6364 39.6023C98.6364 40.3314 98.7524 41.0085 98.9844 41.6335C99.2164 42.2585 99.5739 42.7628 100.057 43.1463C100.54 43.5298 101.155 43.7216 101.903 43.7216ZM110.621 30.4545L110.479 40.9091H108.831L108.689 30.4545H110.621ZM109.655 45.1136C109.305 45.1136 109.004 44.9882 108.753 44.7372C108.502 44.4863 108.377 44.1856 108.377 43.8352C108.377 43.4848 108.502 43.1842 108.753 42.9332C109.004 42.6823 109.305 42.5568 109.655 42.5568C110.006 42.5568 110.306 42.6823 110.557 42.9332C110.808 43.1842 110.934 43.4848 110.934 43.8352C110.934 44.0672 110.874 44.2803 110.756 44.4744C110.642 44.6686 110.489 44.8248 110.294 44.9432C110.105 45.0568 109.892 45.1136 109.655 45.1136ZM119.585 30.4545V45H117.824V30.4545H119.585ZM123.367 30.4545V31.733C123.367 32.1212 123.296 32.5355 123.154 32.9759C123.016 33.4115 122.813 33.8352 122.543 34.2472C122.278 34.6544 121.956 35.0095 121.577 35.3125L120.668 34.5739C120.966 34.1477 121.224 33.705 121.442 33.2457C121.665 32.7817 121.776 32.2869 121.776 31.7614V30.4545H123.367ZM124.151 45V34.0909H125.771V35.7955H125.913C126.14 35.2131 126.507 34.7609 127.013 34.4389C127.52 34.1122 128.129 33.9489 128.839 33.9489C129.558 33.9489 130.157 34.1122 130.636 34.4389C131.119 34.7609 131.495 35.2131 131.765 35.7955H131.879C132.158 35.232 132.577 34.7846 133.136 34.4531C133.694 34.117 134.364 33.9489 135.146 33.9489C136.121 33.9489 136.919 34.2543 137.539 34.8651C138.159 35.4711 138.469 36.4157 138.469 37.6989V45H136.793V37.6989C136.793 36.8939 136.573 36.3187 136.133 35.973C135.692 35.6274 135.174 35.4545 134.577 35.4545C133.81 35.4545 133.216 35.6866 132.795 36.1506C132.373 36.6098 132.163 37.1922 132.163 37.8977V45H130.458V37.5284C130.458 36.9081 130.257 36.4086 129.854 36.0298C129.452 35.6463 128.933 35.4545 128.299 35.4545C127.863 35.4545 127.456 35.5705 127.077 35.8026C126.703 36.0346 126.4 36.3565 126.168 36.7685C125.941 37.1757 125.827 37.6468 125.827 38.1818V45H124.151Z" fill="white"/>
<path d="M145.223 45V30.4545H150.55C151.582 30.4545 152.437 30.625 153.114 30.9659C153.791 31.3021 154.297 31.759 154.634 32.3366C154.97 32.9096 155.138 33.5559 155.138 34.2756C155.138 34.8816 155.027 35.393 154.804 35.8097C154.581 36.2216 154.283 36.553 153.909 36.804C153.54 37.0502 153.133 37.2301 152.688 37.3438V37.4858C153.17 37.5095 153.642 37.6657 154.101 37.9545C154.565 38.2386 154.948 38.6435 155.251 39.169C155.554 39.6946 155.706 40.3338 155.706 41.0866C155.706 41.83 155.531 42.4976 155.18 43.0895C154.835 43.6766 154.3 44.143 153.575 44.4886C152.851 44.8295 151.925 45 150.798 45H145.223ZM147.418 43.1179H150.585C151.636 43.1179 152.389 42.9143 152.844 42.5071C153.298 42.0999 153.526 41.5909 153.526 40.9801C153.526 40.5208 153.41 40.0994 153.178 39.7159C152.946 39.3324 152.614 39.027 152.183 38.7997C151.757 38.5724 151.25 38.4588 150.663 38.4588H147.418V43.1179ZM147.418 36.7472H150.358C150.85 36.7472 151.293 36.6525 151.686 36.4631C152.084 36.2737 152.399 36.0085 152.631 35.6676C152.867 35.322 152.986 34.9148 152.986 34.446C152.986 33.8447 152.775 33.3404 152.354 32.9332C151.932 32.526 151.286 32.3224 150.415 32.3224H147.418V36.7472ZM157.138 45V34.0909H159.191V35.8239H159.305C159.504 35.2367 159.854 34.7751 160.356 34.4389C160.862 34.098 161.435 33.9276 162.075 33.9276C162.207 33.9276 162.363 33.9323 162.543 33.9418C162.728 33.9512 162.872 33.9631 162.977 33.9773V36.0085C162.891 35.9848 162.74 35.9588 162.522 35.9304C162.304 35.8973 162.086 35.8807 161.869 35.8807C161.367 35.8807 160.919 35.9872 160.526 36.2003C160.138 36.4086 159.83 36.6998 159.603 37.0739C159.376 37.4432 159.262 37.8646 159.262 38.3381V45H157.138ZM166.891 45.2415C166.2 45.2415 165.575 45.1136 165.016 44.858C164.458 44.5975 164.015 44.2211 163.688 43.7287C163.366 43.2363 163.205 42.6326 163.205 41.9176C163.205 41.3021 163.324 40.7955 163.56 40.3977C163.797 40 164.117 39.6851 164.519 39.4531C164.922 39.2211 165.371 39.0459 165.869 38.9276C166.366 38.8092 166.872 38.7192 167.388 38.6577C168.042 38.5819 168.572 38.5204 168.979 38.473C169.387 38.4209 169.683 38.3381 169.867 38.2244C170.052 38.1108 170.144 37.9261 170.144 37.6705V37.6207C170.144 37.0005 169.969 36.5199 169.619 36.179C169.273 35.8381 168.757 35.6676 168.07 35.6676C167.355 35.6676 166.792 35.8262 166.38 36.1435C165.973 36.456 165.691 36.804 165.535 37.1875L163.539 36.733C163.776 36.0701 164.121 35.535 164.576 35.1278C165.035 34.7159 165.563 34.4176 166.16 34.233C166.756 34.0436 167.384 33.9489 168.042 33.9489C168.478 33.9489 168.939 34.0009 169.427 34.1051C169.919 34.2045 170.379 34.3892 170.805 34.6591C171.236 34.929 171.588 35.3149 171.863 35.8168C172.138 36.3139 172.275 36.9602 172.275 37.7557V45H170.201V43.5085H170.116C169.978 43.7831 169.772 44.053 169.498 44.3182C169.223 44.5833 168.871 44.8035 168.44 44.9787C168.009 45.1539 167.493 45.2415 166.891 45.2415ZM167.353 43.5369C167.94 43.5369 168.442 43.4209 168.859 43.1889C169.28 42.9569 169.6 42.6539 169.817 42.2798C170.04 41.901 170.151 41.4962 170.151 41.0653V39.6591C170.076 39.7348 169.929 39.8059 169.711 39.8722C169.498 39.9337 169.254 39.9882 168.979 40.0355C168.705 40.0781 168.437 40.1184 168.177 40.1562C167.916 40.1894 167.699 40.2178 167.523 40.2415C167.112 40.2936 166.735 40.3812 166.394 40.5043C166.058 40.6274 165.788 40.8049 165.585 41.0369C165.386 41.2642 165.286 41.5672 165.286 41.946C165.286 42.4716 165.48 42.8693 165.869 43.1392C166.257 43.4044 166.752 43.5369 167.353 43.5369ZM176.227 38.5227V45H174.103V34.0909H176.142V35.8665H176.277C176.528 35.2888 176.921 34.8248 177.456 34.4744C177.995 34.1241 178.675 33.9489 179.494 33.9489C180.237 33.9489 180.888 34.1051 181.447 34.4176C182.006 34.7254 182.439 35.1847 182.747 35.7955C183.055 36.4062 183.208 37.1615 183.208 38.0611V45H181.085V38.3168C181.085 37.526 180.879 36.9081 180.467 36.4631C180.055 36.0133 179.489 35.7884 178.77 35.7884C178.277 35.7884 177.839 35.8949 177.456 36.108C177.077 36.321 176.776 36.6335 176.554 37.0455C176.336 37.4527 176.227 37.9451 176.227 38.5227ZM189.14 45.2131C188.26 45.2131 187.474 44.9882 186.782 44.5384C186.096 44.0838 185.556 43.4375 185.163 42.5994C184.775 41.7566 184.581 40.7457 184.581 39.5668C184.581 38.3878 184.777 37.3793 185.17 36.5412C185.568 35.7031 186.112 35.0616 186.804 34.6165C187.495 34.1714 188.279 33.9489 189.154 33.9489C189.832 33.9489 190.376 34.0625 190.788 34.2898C191.205 34.5123 191.527 34.7727 191.754 35.071C191.986 35.3693 192.166 35.6321 192.294 35.8594H192.422V30.4545H194.545V45H192.471V43.3026H192.294C192.166 43.5346 191.981 43.7997 191.74 44.098C191.503 44.3963 191.176 44.6567 190.76 44.8793C190.343 45.1018 189.803 45.2131 189.14 45.2131ZM189.609 43.402C190.22 43.402 190.736 43.241 191.157 42.919C191.583 42.5923 191.905 42.1402 192.123 41.5625C192.346 40.9848 192.457 40.3125 192.457 39.5455C192.457 38.7879 192.348 38.125 192.13 37.5568C191.913 36.9886 191.593 36.5459 191.172 36.2287C190.75 35.9115 190.229 35.7528 189.609 35.7528C188.97 35.7528 188.437 35.9186 188.011 36.25C187.585 36.5814 187.263 37.0336 187.045 37.6065C186.832 38.1795 186.725 38.8258 186.725 39.5455C186.725 40.2746 186.834 40.9304 187.052 41.5128C187.27 42.0952 187.592 42.5568 188.018 42.8977C188.449 43.2339 188.979 43.402 189.609 43.402ZM201.171 45.2202C200.148 45.2202 199.256 44.9858 198.494 44.517C197.731 44.0483 197.139 43.3925 196.718 42.5497C196.297 41.7069 196.086 40.7221 196.086 39.5952C196.086 38.4635 196.297 37.474 196.718 36.6264C197.139 35.7789 197.731 35.1207 198.494 34.652C199.256 34.1832 200.148 33.9489 201.171 33.9489C202.194 33.9489 203.086 34.1832 203.849 34.652C204.611 35.1207 205.203 35.7789 205.624 36.6264C206.046 37.474 206.256 38.4635 206.256 39.5952C206.256 40.7221 206.046 41.7069 205.624 42.5497C205.203 43.3925 204.611 44.0483 203.849 44.517C203.086 44.9858 202.194 45.2202 201.171 45.2202ZM201.178 43.4375C201.841 43.4375 202.39 43.2623 202.826 42.9119C203.262 42.5616 203.584 42.0952 203.792 41.5128C204.005 40.9304 204.112 40.2888 204.112 39.5881C204.112 38.892 204.005 38.2528 203.792 37.6705C203.584 37.0833 203.262 36.6122 202.826 36.2571C202.39 35.902 201.841 35.7244 201.178 35.7244C200.511 35.7244 199.957 35.902 199.516 36.2571C199.081 36.6122 198.756 37.0833 198.543 37.6705C198.335 38.2528 198.231 38.892 198.231 39.5881C198.231 40.2888 198.335 40.9304 198.543 41.5128C198.756 42.0952 199.081 42.5616 199.516 42.9119C199.957 43.2623 200.511 43.4375 201.178 43.4375ZM209.75 38.5227V45H207.627V34.0909H209.665V35.8665H209.8C210.051 35.2888 210.444 34.8248 210.979 34.4744C211.519 34.1241 212.198 33.9489 213.017 33.9489C213.761 33.9489 214.412 34.1051 214.971 34.4176C215.529 34.7254 215.962 35.1847 216.27 35.7955C216.578 36.4062 216.732 37.1615 216.732 38.0611V45H214.608V38.3168C214.608 37.526 214.402 36.9081 213.99 36.4631C213.578 36.0133 213.013 35.7884 212.293 35.7884C211.801 35.7884 211.363 35.8949 210.979 36.108C210.6 36.321 210.3 36.6335 210.077 37.0455C209.859 37.4527 209.75 37.9451 209.75 38.5227ZM219.979 45.1349C219.591 45.1349 219.257 44.9976 218.978 44.723C218.698 44.4437 218.559 44.1075 218.559 43.7145C218.559 43.3262 218.698 42.9948 218.978 42.7202C219.257 42.4408 219.591 42.3011 219.979 42.3011C220.367 42.3011 220.701 42.4408 220.98 42.7202C221.26 42.9948 221.4 43.3262 221.4 43.7145C221.4 43.9749 221.333 44.214 221.201 44.4318C221.073 44.6449 220.902 44.8153 220.689 44.9432C220.476 45.071 220.239 45.1349 219.979 45.1349Z" fill="#FED538"/>
<path d="M68.4034 68L64.4261 53.4545H66.2159L69.2557 65.3011H69.3977L72.4943 53.4545H74.483L77.5795 65.3011H77.7216L80.7614 53.4545H82.5511L78.5739 68H76.7557L73.5455 56.4091H73.4318L70.2216 68H68.4034ZM87.0767 68.2273C86.0256 68.2273 85.1188 67.9953 84.3565 67.5312C83.599 67.0625 83.0142 66.4091 82.6023 65.571C82.1951 64.7282 81.9915 63.7481 81.9915 62.6307C81.9915 61.5133 82.1951 60.5284 82.6023 59.6761C83.0142 58.8191 83.5871 58.1515 84.321 57.6733C85.0597 57.1903 85.9214 56.9489 86.9062 56.9489C87.4744 56.9489 88.0355 57.0436 88.5895 57.233C89.1435 57.4223 89.6477 57.7301 90.1023 58.1562C90.5568 58.5777 90.919 59.1364 91.1889 59.8324C91.4588 60.5284 91.5938 61.3854 91.5938 62.4034V63.1136H83.1847V61.6648H89.8892C89.8892 61.0492 89.7661 60.5 89.5199 60.017C89.2784 59.5341 88.9328 59.1529 88.483 58.8736C88.0379 58.5942 87.5123 58.4545 86.9062 58.4545C86.2386 58.4545 85.661 58.6203 85.1733 58.9517C84.6903 59.2784 84.3187 59.7045 84.0582 60.2301C83.7978 60.7557 83.6676 61.3191 83.6676 61.9205V62.8864C83.6676 63.7102 83.8097 64.4086 84.0938 64.9815C84.3826 65.5497 84.7827 65.983 85.294 66.2812C85.8054 66.5748 86.3996 66.7216 87.0767 66.7216C87.517 66.7216 87.9148 66.66 88.2699 66.5369C88.6297 66.4091 88.9399 66.2197 89.2003 65.9688C89.4607 65.7131 89.6619 65.3958 89.804 65.017L91.4233 65.4716C91.2528 66.0208 90.9664 66.5038 90.5639 66.9205C90.1615 67.3324 89.6643 67.6544 89.0724 67.8864C88.4806 68.1136 87.8153 68.2273 87.0767 68.2273ZM94.8196 53.4545V68H93.1435V53.4545H94.8196ZM101.321 68.2273C100.299 68.2273 99.418 67.9858 98.6793 67.5028C97.9407 67.0199 97.3725 66.3546 96.9748 65.5071C96.5771 64.6596 96.3782 63.6913 96.3782 62.6023C96.3782 61.4943 96.5818 60.5166 96.989 59.669C97.4009 58.8168 97.9738 58.1515 98.7077 57.6733C99.4464 57.1903 100.308 56.9489 101.293 56.9489C102.06 56.9489 102.751 57.0909 103.367 57.375C103.982 57.6591 104.487 58.0568 104.88 58.5682C105.273 59.0795 105.516 59.6761 105.611 60.358H103.935C103.807 59.8608 103.523 59.4205 103.083 59.0369C102.647 58.6487 102.06 58.4545 101.321 58.4545C100.668 58.4545 100.095 58.625 99.6026 58.9659C99.1149 59.3021 98.7338 59.7779 98.4592 60.3935C98.1893 61.0043 98.0543 61.7216 98.0543 62.5455C98.0543 63.3883 98.1869 64.1222 98.4521 64.7472C98.7219 65.3722 99.1007 65.8575 99.5884 66.2031C100.081 66.5488 100.658 66.7216 101.321 66.7216C101.757 66.7216 102.152 66.6458 102.507 66.4943C102.863 66.3428 103.163 66.125 103.409 65.8409C103.656 65.5568 103.831 65.2159 103.935 64.8182H105.611C105.516 65.4621 105.282 66.0421 104.908 66.5582C104.539 67.0696 104.049 67.4768 103.438 67.7798C102.832 68.0781 102.126 68.2273 101.321 68.2273ZM111.493 68.2273C110.508 68.2273 109.644 67.9929 108.901 67.5241C108.162 67.0554 107.585 66.3996 107.168 65.5568C106.756 64.714 106.55 63.7292 106.55 62.6023C106.55 61.4659 106.756 60.474 107.168 59.6264C107.585 58.7789 108.162 58.1207 108.901 57.652C109.644 57.1832 110.508 56.9489 111.493 56.9489C112.478 56.9489 113.34 57.1832 114.078 57.652C114.822 58.1207 115.4 58.7789 115.811 59.6264C116.228 60.474 116.436 61.4659 116.436 62.6023C116.436 63.7292 116.228 64.714 115.811 65.5568C115.4 66.3996 114.822 67.0554 114.078 67.5241C113.34 67.9929 112.478 68.2273 111.493 68.2273ZM111.493 66.7216C112.241 66.7216 112.857 66.5298 113.34 66.1463C113.823 65.7628 114.18 65.2585 114.412 64.6335C114.644 64.0085 114.76 63.3314 114.76 62.6023C114.76 61.8731 114.644 61.1937 114.412 60.5639C114.18 59.9342 113.823 59.4252 113.34 59.0369C112.857 58.6487 112.241 58.4545 111.493 58.4545C110.745 58.4545 110.13 58.6487 109.647 59.0369C109.164 59.4252 108.806 59.9342 108.574 60.5639C108.342 61.1937 108.226 61.8731 108.226 62.6023C108.226 63.3314 108.342 64.0085 108.574 64.6335C108.806 65.2585 109.164 65.7628 109.647 66.1463C110.13 66.5298 110.745 66.7216 111.493 66.7216ZM117.995 68V57.0909H119.614V58.7955H119.756C119.984 58.2131 120.351 57.7609 120.857 57.4389C121.364 57.1122 121.972 56.9489 122.683 56.9489C123.402 56.9489 124.001 57.1122 124.479 57.4389C124.962 57.7609 125.339 58.2131 125.609 58.7955H125.722C126.002 58.232 126.421 57.7846 126.979 57.4531C127.538 57.117 128.208 56.9489 128.989 56.9489C129.965 56.9489 130.763 57.2543 131.383 57.8651C132.003 58.4711 132.313 59.4157 132.313 60.6989V68H130.637V60.6989C130.637 59.8939 130.417 59.3187 129.977 58.973C129.536 58.6274 129.018 58.4545 128.421 58.4545C127.654 58.4545 127.06 58.6866 126.638 59.1506C126.217 59.6098 126.006 60.1922 126.006 60.8977V68H124.302V60.5284C124.302 59.9081 124.101 59.4086 123.698 59.0298C123.296 58.6463 122.777 58.4545 122.143 58.4545C121.707 58.4545 121.3 58.5705 120.921 58.8026C120.547 59.0346 120.244 59.3565 120.012 59.7685C119.785 60.1757 119.671 60.6468 119.671 61.1818V68H117.995ZM138.952 68.2273C137.901 68.2273 136.994 67.9953 136.232 67.5312C135.474 67.0625 134.889 66.4091 134.477 65.571C134.07 64.7282 133.866 63.7481 133.866 62.6307C133.866 61.5133 134.07 60.5284 134.477 59.6761C134.889 58.8191 135.462 58.1515 136.196 57.6733C136.935 57.1903 137.796 56.9489 138.781 56.9489C139.349 56.9489 139.911 57.0436 140.464 57.233C141.018 57.4223 141.523 57.7301 141.977 58.1562C142.432 58.5777 142.794 59.1364 143.064 59.8324C143.334 60.5284 143.469 61.3854 143.469 62.4034V63.1136H135.06V61.6648H141.764C141.764 61.0492 141.641 60.5 141.395 60.017C141.153 59.5341 140.808 59.1529 140.358 58.8736C139.913 58.5942 139.387 58.4545 138.781 58.4545C138.114 58.4545 137.536 58.6203 137.048 58.9517C136.565 59.2784 136.194 59.7045 135.933 60.2301C135.673 60.7557 135.543 61.3191 135.543 61.9205V62.8864C135.543 63.7102 135.685 64.4086 135.969 64.9815C136.258 65.5497 136.658 65.983 137.169 66.2812C137.68 66.5748 138.275 66.7216 138.952 66.7216C139.392 66.7216 139.79 66.66 140.145 66.5369C140.505 66.4091 140.815 66.2197 141.075 65.9688C141.336 65.7131 141.537 65.3958 141.679 65.017L143.298 65.4716C143.128 66.0208 142.841 66.5038 142.439 66.9205C142.036 67.3324 141.539 67.6544 140.947 67.8864C140.356 68.1136 139.69 68.2273 138.952 68.2273ZM154.388 57.0909V58.5114H148.734V57.0909H154.388ZM150.382 54.4773H152.058V64.875C152.058 65.3485 152.127 65.7036 152.264 65.9403C152.406 66.1723 152.586 66.3286 152.804 66.4091C153.027 66.4848 153.261 66.5227 153.507 66.5227C153.692 66.5227 153.843 66.5133 153.962 66.4943C154.08 66.4706 154.175 66.4517 154.246 66.4375L154.587 67.9432C154.473 67.9858 154.314 68.0284 154.111 68.071C153.907 68.1184 153.649 68.142 153.337 68.142C152.863 68.142 152.399 68.0402 151.945 67.8366C151.495 67.633 151.121 67.3229 150.822 66.9062C150.529 66.4896 150.382 65.964 150.382 65.3295V54.4773ZM160.224 68.2273C159.239 68.2273 158.375 67.9929 157.631 67.5241C156.893 67.0554 156.315 66.3996 155.898 65.5568C155.487 64.714 155.281 63.7292 155.281 62.6023C155.281 61.4659 155.487 60.474 155.898 59.6264C156.315 58.7789 156.893 58.1207 157.631 57.652C158.375 57.1832 159.239 56.9489 160.224 56.9489C161.209 56.9489 162.07 57.1832 162.809 57.652C163.552 58.1207 164.13 58.7789 164.542 59.6264C164.959 60.474 165.167 61.4659 165.167 62.6023C165.167 63.7292 164.959 64.714 164.542 65.5568C164.13 66.3996 163.552 67.0554 162.809 67.5241C162.07 67.9929 161.209 68.2273 160.224 68.2273ZM160.224 66.7216C160.972 66.7216 161.587 66.5298 162.07 66.1463C162.553 65.7628 162.911 65.2585 163.143 64.6335C163.375 64.0085 163.491 63.3314 163.491 62.6023C163.491 61.8731 163.375 61.1937 163.143 60.5639C162.911 59.9342 162.553 59.4252 162.07 59.0369C161.587 58.6487 160.972 58.4545 160.224 58.4545C159.476 58.4545 158.86 58.6487 158.377 59.0369C157.894 59.4252 157.537 59.9342 157.305 60.5639C157.073 61.1937 156.957 61.8731 156.957 62.6023C156.957 63.3314 157.073 64.0085 157.305 64.6335C157.537 65.2585 157.894 65.7628 158.377 66.1463C158.86 66.5298 159.476 66.7216 160.224 66.7216ZM171.35 68V57.0909H172.97V58.7955H173.112C173.339 58.2131 173.706 57.7609 174.213 57.4389C174.719 57.1122 175.328 56.9489 176.038 56.9489C176.758 56.9489 177.357 57.1122 177.835 57.4389C178.318 57.7609 178.694 58.2131 178.964 58.7955H179.078C179.357 58.232 179.776 57.7846 180.335 57.4531C180.894 57.117 181.564 56.9489 182.345 56.9489C183.32 56.9489 184.118 57.2543 184.738 57.8651C185.359 58.4711 185.669 59.4157 185.669 60.6989V68H183.993V60.6989C183.993 59.8939 183.772 59.3187 183.332 58.973C182.892 58.6274 182.373 58.4545 181.777 58.4545C181.01 58.4545 180.415 58.6866 179.994 59.1506C179.573 59.6098 179.362 60.1922 179.362 60.8977V68H177.657V60.5284C177.657 59.9081 177.456 59.4086 177.054 59.0298C176.651 58.6463 176.133 58.4545 175.498 58.4545C175.063 58.4545 174.655 58.5705 174.277 58.8026C173.903 59.0346 173.6 59.3565 173.368 59.7685C173.14 60.1757 173.027 60.6468 173.027 61.1818V68H171.35ZM188.422 72.0909C188.138 72.0909 187.885 72.0672 187.662 72.0199C187.44 71.9773 187.286 71.9347 187.201 71.892L187.627 70.4148C188.034 70.5189 188.394 70.5568 188.706 70.5284C189.019 70.5 189.296 70.3603 189.537 70.1094C189.783 69.8632 190.008 69.4631 190.212 68.9091L190.525 68.0568L186.49 57.0909H188.309L191.32 65.7841H191.434L194.445 57.0909H196.263L191.632 69.5909C191.424 70.1544 191.166 70.6207 190.858 70.9901C190.551 71.3641 190.193 71.6411 189.786 71.821C189.383 72.0009 188.929 72.0909 188.422 72.0909ZM202.1 72.0909V57.0909H203.72V58.8239H203.919C204.042 58.6345 204.212 58.393 204.43 58.0994C204.653 57.8011 204.97 57.536 205.382 57.304C205.798 57.0672 206.362 56.9489 207.072 56.9489C207.991 56.9489 208.8 57.1785 209.501 57.6378C210.202 58.0971 210.749 58.7481 211.142 59.5909C211.535 60.4337 211.731 61.428 211.731 62.5739C211.731 63.7292 211.535 64.7306 211.142 65.5781C210.749 66.4209 210.204 67.0743 209.508 67.5384C208.812 67.9976 208.01 68.2273 207.1 68.2273C206.4 68.2273 205.839 68.1113 205.417 67.8793C204.996 67.6425 204.672 67.375 204.444 67.0767C204.217 66.7737 204.042 66.5227 203.919 66.3239H203.777V72.0909H202.1ZM203.748 62.5455C203.748 63.3693 203.869 64.0961 204.11 64.7259C204.352 65.3509 204.705 65.8409 205.169 66.196C205.633 66.5464 206.201 66.7216 206.873 66.7216C207.574 66.7216 208.159 66.5369 208.627 66.1676C209.101 65.7936 209.456 65.2917 209.693 64.6619C209.934 64.0275 210.055 63.322 210.055 62.5455C210.055 61.7784 209.937 61.0871 209.7 60.4716C209.468 59.8513 209.115 59.3613 208.642 59.0014C208.173 58.6368 207.583 58.4545 206.873 58.4545C206.191 58.4545 205.618 58.6274 205.154 58.973C204.69 59.3139 204.34 59.7921 204.103 60.4077C203.867 61.0185 203.748 61.7311 203.748 62.5455ZM217.72 68.2273C216.735 68.2273 215.871 67.9929 215.127 67.5241C214.389 67.0554 213.811 66.3996 213.395 65.5568C212.983 64.714 212.777 63.7292 212.777 62.6023C212.777 61.4659 212.983 60.474 213.395 59.6264C213.811 58.7789 214.389 58.1207 215.127 57.652C215.871 57.1832 216.735 56.9489 217.72 56.9489C218.705 56.9489 219.566 57.1832 220.305 57.652C221.048 58.1207 221.626 58.7789 222.038 59.6264C222.455 60.474 222.663 61.4659 222.663 62.6023C222.663 63.7292 222.455 64.714 222.038 65.5568C221.626 66.3996 221.048 67.0554 220.305 67.5241C219.566 67.9929 218.705 68.2273 217.72 68.2273ZM217.72 66.7216C218.468 66.7216 219.083 66.5298 219.566 66.1463C220.049 65.7628 220.407 65.2585 220.639 64.6335C220.871 64.0085 220.987 63.3314 220.987 62.6023C220.987 61.8731 220.871 61.1937 220.639 60.5639C220.407 59.9342 220.049 59.4252 219.566 59.0369C219.083 58.6487 218.468 58.4545 217.72 58.4545C216.972 58.4545 216.356 58.6487 215.873 59.0369C215.39 59.4252 215.033 59.9342 214.801 60.5639C214.569 61.1937 214.453 61.8731 214.453 62.6023C214.453 63.3314 214.569 64.0085 214.801 64.6335C215.033 65.2585 215.39 65.7628 215.873 66.1463C216.356 66.5298 216.972 66.7216 217.72 66.7216ZM224.222 68V57.0909H225.841V58.7386H225.955C226.153 58.1989 226.513 57.7609 227.034 57.4247C227.555 57.0885 228.142 56.9205 228.795 56.9205C228.919 56.9205 229.072 56.9228 229.257 56.9276C229.442 56.9323 229.581 56.9394 229.676 56.9489V58.6534C229.619 58.6392 229.489 58.6179 229.286 58.5895C229.087 58.5563 228.876 58.5398 228.653 58.5398C228.123 58.5398 227.65 58.651 227.233 58.8736C226.821 59.0914 226.494 59.3944 226.253 59.7827C226.016 60.1662 225.898 60.6042 225.898 61.0966V68H224.222ZM236.091 57.0909V58.5114H230.438V57.0909H236.091ZM232.085 54.4773H233.761V64.875C233.761 65.3485 233.83 65.7036 233.967 65.9403C234.109 66.1723 234.289 66.3286 234.507 66.4091C234.73 66.4848 234.964 66.5227 235.21 66.5227C235.395 66.5227 235.546 66.5133 235.665 66.4943C235.783 66.4706 235.878 66.4517 235.949 66.4375L236.29 67.9432C236.176 67.9858 236.018 68.0284 235.814 68.071C235.61 68.1184 235.352 68.142 235.04 68.142C234.566 68.142 234.102 68.0402 233.648 67.8366C233.198 67.633 232.824 67.3229 232.526 66.9062C232.232 66.4896 232.085 65.964 232.085 65.3295V54.4773ZM242.47 57.0909V58.5114H236.589V57.0909H242.47ZM238.351 68V55.5852C238.351 54.9602 238.498 54.4394 238.791 54.0227C239.085 53.6061 239.466 53.2936 239.935 53.0852C240.403 52.8769 240.898 52.7727 241.419 52.7727C241.831 52.7727 242.167 52.8059 242.428 52.8722C242.688 52.9384 242.882 53 243.01 53.0568L242.527 54.5057C242.442 54.4773 242.323 54.4418 242.172 54.3991C242.025 54.3565 241.831 54.3352 241.589 54.3352C241.036 54.3352 240.635 54.4749 240.389 54.7543C240.148 55.0336 240.027 55.4432 240.027 55.983V68H238.351ZM247.802 68.2273C246.817 68.2273 245.953 67.9929 245.21 67.5241C244.471 67.0554 243.893 66.3996 243.477 65.5568C243.065 64.714 242.859 63.7292 242.859 62.6023C242.859 61.4659 243.065 60.474 243.477 59.6264C243.893 58.7789 244.471 58.1207 245.21 57.652C245.953 57.1832 246.817 56.9489 247.802 56.9489C248.787 56.9489 249.648 57.1832 250.387 57.652C251.13 58.1207 251.708 58.7789 252.12 59.6264C252.537 60.474 252.745 61.4659 252.745 62.6023C252.745 63.7292 252.537 64.714 252.12 65.5568C251.708 66.3996 251.13 67.0554 250.387 67.5241C249.648 67.9929 248.787 68.2273 247.802 68.2273ZM247.802 66.7216C248.55 66.7216 249.165 66.5298 249.648 66.1463C250.131 65.7628 250.489 65.2585 250.721 64.6335C250.953 64.0085 251.069 63.3314 251.069 62.6023C251.069 61.8731 250.953 61.1937 250.721 60.5639C250.489 59.9342 250.131 59.4252 249.648 59.0369C249.165 58.6487 248.55 58.4545 247.802 58.4545C247.054 58.4545 246.438 58.6487 245.955 59.0369C245.472 59.4252 245.115 59.9342 244.883 60.5639C244.651 61.1937 244.535 61.8731 244.535 62.6023C244.535 63.3314 244.651 64.0085 244.883 64.6335C245.115 65.2585 245.472 65.7628 245.955 66.1463C246.438 66.5298 247.054 66.7216 247.802 66.7216ZM255.98 53.4545V68H254.304V53.4545H255.98ZM258.05 68V57.0909H259.726V68H258.05ZM258.902 55.2727C258.575 55.2727 258.294 55.1615 258.057 54.9389C257.825 54.7164 257.709 54.4489 257.709 54.1364C257.709 53.8239 257.825 53.5563 258.057 53.3338C258.294 53.1113 258.575 53 258.902 53C259.229 53 259.508 53.1113 259.74 53.3338C259.977 53.5563 260.095 53.8239 260.095 54.1364C260.095 54.4489 259.977 54.7164 259.74 54.9389C259.508 55.1615 259.229 55.2727 258.902 55.2727ZM266.228 68.2273C265.243 68.2273 264.379 67.9929 263.635 67.5241C262.897 67.0554 262.319 66.3996 261.902 65.5568C261.49 64.714 261.284 63.7292 261.284 62.6023C261.284 61.4659 261.49 60.474 261.902 59.6264C262.319 58.7789 262.897 58.1207 263.635 57.652C264.379 57.1832 265.243 56.9489 266.228 56.9489C267.212 56.9489 268.074 57.1832 268.813 57.652C269.556 58.1207 270.134 58.7789 270.546 59.6264C270.962 60.474 271.171 61.4659 271.171 62.6023C271.171 63.7292 270.962 64.714 270.546 65.5568C270.134 66.3996 269.556 67.0554 268.813 67.5241C268.074 67.9929 267.212 68.2273 266.228 68.2273ZM266.228 66.7216C266.976 66.7216 267.591 66.5298 268.074 66.1463C268.557 65.7628 268.915 65.2585 269.147 64.6335C269.379 64.0085 269.495 63.3314 269.495 62.6023C269.495 61.8731 269.379 61.1937 269.147 60.5639C268.915 59.9342 268.557 59.4252 268.074 59.0369C267.591 58.6487 266.976 58.4545 266.228 58.4545C265.48 58.4545 264.864 58.6487 264.381 59.0369C263.898 59.4252 263.541 59.9342 263.309 60.5639C263.077 61.1937 262.961 61.8731 262.961 62.6023C262.961 63.3314 263.077 64.0085 263.309 64.6335C263.541 65.2585 263.898 65.7628 264.381 66.1463C264.864 66.5298 265.48 66.7216 266.228 66.7216Z" fill="white"/>
</g>
<defs>
<clipPath id="clip0_181_3118">
<rect width="323" height="100" fill="white"/>
</clipPath>
</defs>
</svg>
